<?xml version="1.0" encoding="utf-8"?>
<!-- Generator: Adobe Illustrator 19.0.0, SVG Export Plug-In . SVG Version: 6.00 Build 0)  -->
<svg version="1.1" id="Layer_1" xmlns="http://www.w3.org/2000/svg" xmlns:xlink="http://www.w3.org/1999/xlink" x="0px" y="0px"
	 viewBox="0 0 200 200" style="enable-background:new 0 0 200 200;" xml:space="preserve">
<style type="text/css">
	.st0{fill:#F0F6FF;}
	.st1{opacity:0.7;fill:#9FC6FF;}
	.st2{fill:#FFFFFF;}
	.st3{fill:#D4E9FF;}
	.st4{fill:#407BFF;}
	.st5{opacity:0.3;fill:#14365B;}
	.st6{fill:#0053CC;}
	.st7{fill:#DCE9FF;}
	.st8{fill:#FF8B7B;}
	.st9{fill:#0F264C;}
	.st10{fill:#FF5652;}
	.st11{fill:#14365B;}
	.st12{fill:#EA7063;}
	.st13{fill:#236AE8;}
	.st14{fill:#004DAA;}
	.st15{fill:#9FC6FF;}
</style>
<ellipse id="XMLID_68_" class="st0" cx="98.8" cy="169.8" rx="91.6" ry="5.4"/>
<g id="XMLID_70_">
	<g id="XMLID_131_">
		<g id="XMLID_133_">
			<polygon id="XMLID_67_" class="st1" points="96.3,33.1 48.5,27.3 52.4,163.5 93.8,168.2 			"/>
			<polygon id="XMLID_66_" class="st1" points="144.4,28.1 96.3,33.1 93.8,168.2 135.5,164.7 			"/>
			<polygon id="XMLID_65_" class="st1" points="192,33.9 144.4,28.1 135.5,164.7 176.7,169.3 			"/>
			<path id="XMLID_64_" class="st2" d="M90.5,121.2c0-3.3-2.7-5.9-6-5.7c-2.8,0.1-5.1,2.3-5.4,5.1c-0.2,2,0.6,3.9,2,5.1
				c0.8,0.7,1.5,1.5,2.1,2.3l0.9,1.3l1.1-1.1c0.7-0.7,1.5-1.4,2.4-1.9C89.4,125.2,90.5,123.4,90.5,121.2z"/>
			<path id="XMLID_63_" class="st2" d="M178,49.3c0-3.3-2.7-5.9-6-5.7c-2.8,0.1-5.1,2.3-5.4,5.1c-0.2,2,0.6,3.9,2,5.1
				c0.8,0.7,1.5,1.5,2.1,2.3l0.9,1.3l1.1-1.1c0.7-0.7,1.5-1.4,2.4-1.9C176.9,53.2,178,51.4,178,49.3z"/>
			<path id="XMLID_137_" class="st3" d="M96,32.3l48.7-5.1l48.1,5.9l-15.4,137l-41.8-4.7L93.5,169l-41.9-4.7L47.7,26.4L96,32.3z
				 M101.9,149.3l34.5-24.2l0.1-0.1l7.5-4.2l-6.5-5l-44-15.8l-8.7-5l-12.8,30.2l23.6,19.9L101.9,149.3z M67.1,121l12.2-29.2
				L55.6,78.1l0.7,33.9L67.1,121z M96.1,39.7l-0.7-0.1l-40.8-5l0.8,35.8l26.5,15.4l10.6-18l13.3-29.2l-9,0.9L96.1,39.7z M113.7,37.9
				L98.2,71.4L87.5,89.2l8.5,5l44.6,16.1l9.4,7.2l11.1-6.2l-5.5-75.3l-11.2-1.4L113.7,37.9z M162.5,36.9l4.8,71.1l11.5-6.4l6.6-61.9
				L162.5,36.9z M135.8,159.8l0.6,0.1l35.7,4l5.8-54.7l-38.2,21l-32.5,22.6l12.6,8.3l0,0l15.4-1.3L135.8,159.8z M93.4,163.4
				l17.3-1.5l-18.5-12.2L56.5,120l0.9,39.4L93.4,163.4z"/>
			<path id="XMLID_54_" class="st4" d="M149.8,121.9c-0.1,0-0.2,0-0.3-0.1l-10.6-8.1L94.7,97.5c0,0-0.1,0-0.1,0l-11-6.6l-12.3,29.5
				c-0.1,0.2-0.4,0.4-0.6,0.3c-0.2-0.1-0.3-0.4-0.3-0.6l12.5-30c0.1-0.1,0.2-0.2,0.3-0.3c0.1,0,0.3,0,0.4,0L95,96.7l44.2,16.1
				c0,0,0.1,0,0.1,0.1l10.4,8l14.5-8l-4.6-60.1c0-0.3,0.2-0.5,0.4-0.5c0.2,0,0.5,0.2,0.5,0.4l4.6,60.4c0,0.2-0.1,0.4-0.2,0.4
				l-15.1,8.3C149.9,121.9,149.8,121.9,149.8,121.9z"/>
			<circle id="XMLID_53_" class="st4" cx="160.2" cy="52.8" r="1.4"/>
			<circle id="XMLID_52_" class="st4" cx="70.8" cy="120.2" r="1.4"/>
		</g>
		<polygon id="XMLID_51_" class="st5" points="144.7,27.2 96,32.3 93.5,169 135.7,165.5 		"/>
	</g>
	<g id="XMLID_71_">
		<g id="XMLID_76_">
			<path id="XMLID_50_" class="st6" d="M60.3,69.4l-3-4.1c-0.2-0.3-0.1-0.7,0.2-0.8l10.9-5.7c0.3-0.2,0.7-0.1,1,0.2l3,4.1
				c0.2,0.3,0.1,0.7-0.2,0.8l-10.9,5.7C60.9,69.8,60.5,69.7,60.3,69.4z"/>
			<path id="XMLID_49_" class="st4" d="M59.9,68.9l-3-4.1c-0.2-0.3-0.1-0.7,0.2-0.8L68,58.3c0.3-0.2,0.7-0.1,1,0.2l3,4.1
				c0.2,0.3,0.1,0.7-0.2,0.8l-10.9,5.7C60.6,69.3,60.1,69.2,59.9,68.9z"/>
			<polygon id="XMLID_48_" class="st7" points="71.4,63.6 66.5,66.2 66,66.4 63.8,67.6 63.4,67.8 61.6,68.7 57.9,63.6 58.3,63.3 
				58.8,63.1 63,60.9 64.3,60.2 67.6,58.5 68.9,60.2 69.2,60.6 70.9,62.9 71.1,63.3 			"/>
			<path id="XMLID_125_" class="st2" d="M71.1,63.3l-0.3-0.4l-3.6,1.7l-1.3,0.9L65.5,65l-1-2.7l-1.3-0.8l0.4-0.8l5.5,0l-0.3-0.4
				l-4.5,0L63,60.9l-1,1.9l-1.8,1.7l-1.5-1.5l-0.5,0.2l2.5,2.5l2.5,2l0.5-0.2l-0.3-0.3l2.3-1.2l0.3,0.3l0.4-0.2l-0.3-0.3l1.3-0.9
				L71.1,63.3z M63.1,67l-1.9-1.5l-0.6-0.6l1.9-1.9l0.6-1.1l1.1,0.6l0.9,2.7l0,0l0.5,0.5L63.1,67z"/>
			<path id="XMLID_45_" class="st8" d="M33,60.6c-0.1,0.1-0.2,0.4-0.3,0.5l-0.3,0.6c-0.2,0.4-0.4,0.8-0.5,1.2
				c-0.3,0.8-0.7,1.7-0.9,2.6c-0.6,1.7-1,3.5-1.3,5.3c-0.1,0.4-0.1,0.9-0.2,1.4c0,0.1,0,0.1,0,0.2c0,0,0,0.1,0,0.1
				c0,0.1,0,0.1,0,0.2c0,0.1,0.1,0.1,0.2,0.2c0.2,0.1,0.5,0.2,0.9,0.3c0.8,0.2,1.7,0.2,2.6,0.2c0.9,0,1.9-0.1,2.8-0.1l0.5,1.9
				c-0.5,0.2-1,0.3-1.5,0.5c-0.5,0.1-1,0.3-1.5,0.4c-1,0.2-2.1,0.3-3.2,0.3c-0.6,0-1.2-0.1-1.9-0.4c-0.3-0.1-0.7-0.3-1-0.6
				c-0.3-0.3-0.7-0.6-0.9-1c-0.2-0.4-0.4-0.9-0.4-1.3c0-0.2,0-0.4,0-0.6l0-0.3l0-0.2c0-0.5,0.1-1,0.1-1.5c0.2-2,0.6-4.1,1.2-6
				c0.3-1,0.6-2,1-2.9c0.2-0.5,0.4-0.9,0.6-1.4c0.1-0.2,0.2-0.5,0.3-0.7c0.1-0.2,0.2-0.5,0.4-0.7L33,60.6z"/>
			<path id="XMLID_44_" class="st8" d="M35.5,73.1l2.9-2.7l0.2,4c0,0-2.2,1.3-3.6,0.5L35.5,73.1z"/>
			<polygon id="XMLID_43_" class="st8" points="41.8,70.1 41.8,73.5 38.7,74.4 38.5,70.4 			"/>
			<path id="XMLID_119_" class="st6" d="M30.6,167.9c-0.4,0-0.8-0.1-1-0.1c0,0-0.1,0-0.1-0.1c0,0,0-0.1,0-0.1
				c0.1-0.1,1.3-0.9,1.8-0.7c0.1,0,0.2,0.1,0.2,0.3c0,0.2,0,0.4-0.2,0.5C31.2,167.8,30.9,167.9,30.6,167.9z M29.8,167.6
				c0.7,0.1,1.2,0.1,1.4-0.1c0.1-0.1,0.1-0.2,0.1-0.3c0-0.1,0-0.1-0.1-0.1C31,167,30.3,167.3,29.8,167.6z"/>
			<path id="XMLID_116_" class="st6" d="M29.6,167.7C29.6,167.7,29.5,167.7,29.6,167.7C29.5,167.7,29.5,167.7,29.6,167.7
				c-0.1-0.1-0.1-1.3,0.3-1.7c0.1-0.1,0.2-0.1,0.4-0.1c0.2,0,0.3,0.2,0.3,0.3C30.7,166.7,30,167.5,29.6,167.7
				C29.6,167.7,29.6,167.7,29.6,167.7z M30.2,166.1c-0.1,0-0.1,0-0.2,0.1c-0.3,0.2-0.3,0.9-0.4,1.2c0.4-0.3,0.8-0.9,0.8-1.2
				C30.4,166.2,30.4,166.2,30.2,166.1C30.3,166.1,30.3,166.1,30.2,166.1z"/>
			<path id="XMLID_113_" class="st6" d="M48.6,167.9c-0.4,0-0.9-0.1-1.2-0.1c0,0-0.1,0-0.1-0.1c0,0,0-0.1,0-0.1
				c0.2-0.1,1.8-0.9,2.2-0.6c0.1,0.1,0.1,0.1,0.2,0.2c0,0.2,0,0.3-0.2,0.5C49.4,167.8,49,167.9,48.6,167.9z M47.7,167.6
				c0.9,0.1,1.5,0.1,1.8-0.1c0.1-0.1,0.1-0.2,0.1-0.3c0,0,0-0.1-0.1-0.1C49.2,167,48.3,167.3,47.7,167.6z"/>
			<path id="XMLID_110_" class="st6" d="M47.4,167.7C47.4,167.7,47.3,167.7,47.4,167.7c-0.1,0-0.1-0.1-0.1-0.1c0,0,0.1-1.1,0.6-1.5
				c0.2-0.1,0.3-0.2,0.5-0.2c0.3,0,0.3,0.2,0.4,0.3C48.8,166.7,47.9,167.5,47.4,167.7C47.4,167.7,47.4,167.7,47.4,167.7z
				 M48.3,166.1c-0.1,0-0.2,0-0.3,0.1c-0.3,0.3-0.5,0.9-0.5,1.2c0.5-0.3,1.1-1,1.1-1.2C48.6,166.2,48.5,166.2,48.3,166.1
				C48.4,166.1,48.3,166.1,48.3,166.1z"/>
			<path id="XMLID_34_" class="st8" d="M38,45c0.5,2.3,1.5,7.1-0.1,8.7c0,0,0.6,2.4,5,2.4c4.8,0,2.3-2.4,2.3-2.4
				c-2.6-0.6-2.6-2.6-2.1-4.4L38,45z"/>
			<path id="XMLID_33_" class="st9" d="M47.2,39.5c0,0-0.1,0-0.1,0C47,39.4,47,39.3,47,39.2c0.6-0.9,1.4-0.9,1.5-0.9
				c0.1,0,0.2,0.1,0.2,0.2c0,0.1-0.1,0.2-0.2,0.2c0,0-0.7,0-1.2,0.7C47.3,39.5,47.2,39.5,47.2,39.5z"/>
			<path id="XMLID_32_" class="st10" d="M48.3,41.7c0,0,0.5,1.4,1.1,2C49,44.1,48.3,44,48.3,44V41.7z"/>
			<ellipse id="XMLID_31_" class="st9" cx="48.4" cy="41.2" rx="0.4" ry="0.6"/>
			<path id="XMLID_30_" class="st9" d="M48.3,40.6l0.8-0.2C49.1,40.4,48.7,41,48.3,40.6z"/>
			<polygon id="XMLID_29_" class="st8" points="43,167.7 47,167.7 47.2,158.5 43.3,158.5 			"/>
			<polygon id="XMLID_28_" class="st8" points="25,167.7 29,167.7 30.3,158.5 26.3,158.5 			"/>
			<path id="XMLID_27_" class="st11" d="M29.2,167.2h-4.4c-0.2,0-0.3,0.1-0.3,0.3L24,171c-0.1,0.4,0.3,0.7,0.6,0.7
				c1.6,0,2.3-0.1,4.3-0.1c1.2,0,3,0.1,4.6,0.1c1.6,0,1.8-1.6,1.1-1.8c-3.1-0.7-3.6-1.6-4.6-2.5C29.7,167.3,29.5,167.2,29.2,167.2z"
				/>
			<path id="XMLID_26_" class="st11" d="M47.1,167.2h-4.4c-0.2,0-0.3,0.1-0.3,0.3l-0.5,3.5c-0.1,0.4,0.3,0.7,0.6,0.7
				c1.6,0,2.3-0.1,4.3-0.1c1.2,0,3.7,0.1,5.4,0.1c1.6,0,1.8-1.6,1.1-1.8c-3.1-0.7-4.3-1.6-5.4-2.5C47.6,167.3,47.4,167.2,47.1,167.2
				z"/>
			<g id="XMLID_98_">
				<polygon id="XMLID_25_" class="st12" points="47.2,158.5 47.1,163.2 43.2,163.2 43.3,158.5 				"/>
				<polygon id="XMLID_24_" class="st12" points="26.3,158.5 30.3,158.5 29.6,163.2 25.7,163.2 				"/>
			</g>
			<path id="XMLID_23_" class="st4" d="M51.9,54.6c0,0,1.9,0.7-1.9,23.9c-6.4,0-13,0-16.1,0c0.3-6.5,0.3-10.6-2.8-24
				c0,0,3.4-0.7,6.8-0.9c2.7-0.1,4.9-0.2,7.3,0C48.3,53.9,51.9,54.6,51.9,54.6z"/>
			<polygon id="XMLID_22_" class="st13" points="48.6,64.9 51.4,67.9 51.7,61.9 			"/>
			<path id="XMLID_94_" class="st8" d="M60.8,68.2c-0.6,0.8-1.2,1.7-1.9,2.5c-0.6,0.8-1.3,1.6-2,2.2c-0.1,0.1-0.2,0.2-0.3,0.2
				l-0.1-0.4c-0.1-0.5-0.3-1-0.4-1.5c-0.6-2-1.1-4-1.6-6.1l-1.4-6.2l-4,0.8c0.4,2.1,0.9,4.2,1.5,6.3c0.3,1,0.6,2.1,0.8,3.1
				c0.3,1,0.6,2.1,1,3.1c0.2,0.5,0.4,1,0.6,1.6l0.3,0.8c0,0.1,0.1,0.3,0.2,0.5c0.1,0.2,0.2,0.4,0.4,0.6c0.2,0.2,0.4,0.5,0.7,0.7
				c0.3,0.2,0.7,0.3,1.1,0.4c0.8,0.1,1.4-0.2,1.8-0.4c0.8-0.4,1.2-0.9,1.6-1.4c0.8-1,1.4-1.9,1.9-2.9c0.3-0.5,0.5-1,0.7-1.5
				c0.2-0.5,0.4-1,0.6-1.5L60.8,68.2z"/>
			<path id="XMLID_20_" class="st4" d="M51.9,54.6c1.6,0.4,2.8,7.1,2.8,7.1l-6.3,4.3c0,0-2.5-8-1.3-9.8C48.4,54.4,49.5,54,51.9,54.6
				z"/>
			<path id="XMLID_19_" class="st8" d="M61.7,69.7l3.5-1.3l-2.3-1.9c0,0-2.7,0.3-2.7,2.5L61.7,69.7z"/>
			<polygon id="XMLID_18_" class="st8" points="67.2,67.2 67.6,66.3 62.9,66.6 65.2,68.5 			"/>
			<polygon id="XMLID_17_" class="st8" points="64.3,66.5 63.9,66 64.4,64.6 63.6,64.7 61.3,67.2 			"/>
			<path id="XMLID_16_" class="st8" d="M37.3,40.1c0.2,3.9,0.3,5.6,2.2,7.6c3,3,7.7,1.9,8.7-2c0.8-3.5,0.3-9.3-3.5-10.9
				C40.9,33.2,37.1,36.1,37.3,40.1z"/>
			<path id="XMLID_15_" class="st6" d="M45.7,78.5c0,0-0.4,4.7-1,11.3c0,0,0,0,0,0c-0.8,8.1-1.9,18.9-3.1,27.5
				c-0.2,1.3-0.4,2.5-0.5,3.7c-1.9,12.4-10.5,41.3-10.5,41.3h-5.4c0,0,4.5-27.9,5.4-40.2c2.5-31-1.9-36.4,3.3-43.6H45.7z"/>
			<path id="XMLID_14_" class="st14" d="M44.7,89.8C44.7,89.8,44.7,89.8,44.7,89.8c-0.8,8.1-1.9,18.9-3.1,27.5
				c-1.2-3.7-3.4-16.4-1.5-27.7C41.3,82.9,43.5,85.8,44.7,89.8z"/>
			<path id="XMLID_13_" class="st6" d="M50,78.5c0,0,3.1,30.5,2.9,42.6c-0.3,12.6-4.9,41.2-4.9,41.2h-5.4c0,0,0.8-27.9,0.4-40.2
				c-0.5-13.4-4.8-43.5-4.8-43.5H50z"/>
			<polygon id="XMLID_12_" class="st4" points="31.2,162.6 24.5,162.6 24.4,160.3 31.7,160.1 			"/>
			<polygon id="XMLID_11_" class="st4" points="48.6,162.6 42,162.6 41.7,160.1 49.2,160.1 			"/>
			<path id="XMLID_10_" class="st4" d="M31,54.5c-1.6,0.4-3.9,6.4-3.9,6.4l6.9,4c0,0,2-4.7,1.2-6.8C34.5,56,33,54.1,31,54.5z"/>
			<path id="XMLID_9_" class="st9" d="M40.7,33.1c-5.5-0.4-7.4,3.5-6.5,8.3c1,5.2-0.8,7.5-2.8,9.4c-1.6,1.5-2.2,4.3-0.8,7.9
				c1.1,3-0.3,4.7,0,7.2c0.3,2.7,4.8,3.8,7.3,1.2c2.4-2.5,1.8-4.3,4-5.1c3.4-1.3,6.5-3.4,5.7-7.3c-0.5-2.5-3.6-4.2-2.7-7.4
				C45.9,43.6,50.1,33.8,40.7,33.1z"/>
			<path id="XMLID_8_" class="st9" d="M36.5,34.2l9.3,7c0.1-1.2,1.3-3.2,2.2-4.4C49.3,35,42.1,27.8,36.5,34.2z"/>
			<path id="XMLID_7_" class="st8" d="M44.6,41.6c0,0.8,0.3,1.6,0.8,2.1c0.6,0.8,1.4,0.3,1.6-0.6c0.2-0.8,0-2.2-0.8-2.6
				C45.4,40.1,44.6,40.7,44.6,41.6z"/>
			<path id="XMLID_6_" class="st9" d="M33.6,77.6L32.9,79c-0.1,0.1,0.1,0.2,0.3,0.2H50c0.1,0,0.3-0.1,0.3-0.2l0.1-1.4
				c0-0.1-0.1-0.2-0.3-0.2H33.9C33.8,77.5,33.7,77.5,33.6,77.6z"/>
			<path id="XMLID_5_" class="st15" d="M35.8,79.4h-0.4c-0.1,0-0.2,0-0.1-0.1l0.2-1.9c0-0.1,0.1-0.1,0.2-0.1h0.4
				c0.1,0,0.2,0,0.1,0.1L36,79.3C36,79.4,35.9,79.4,35.8,79.4z"/>
			<path id="XMLID_4_" class="st15" d="M46.4,79.4H46c-0.1,0-0.2,0-0.1-0.1l0.2-1.9c0-0.1,0.1-0.1,0.2-0.1h0.4c0.1,0,0.2,0,0.1,0.1
				l-0.2,1.9C46.6,79.4,46.5,79.4,46.4,79.4z"/>
		</g>
		<g id="XMLID_72_">
			<path id="XMLID_3_" class="st2" d="M70.6,48.7c-0.3-3.3-3.2-5.7-6.6-5.3c-2.8,0.4-5,2.8-5,5.6c-0.1,2.1,1,3.9,2.5,4.9
				c0.9,0.6,1.6,1.4,2.3,2.2l1,1.2l1-1.2c0.7-0.8,1.4-1.6,2.3-2.2C69.8,52.8,70.8,50.8,70.6,48.7z"/>
			<path id="XMLID_2_" class="st9" d="M65.2,53.4c-1.3,0.1-2.6-0.4-3.4-1.3c0,0,0,0,0,0c-0.2-0.2-0.4-0.5-0.6-0.7
				c-0.3-0.5-0.5-1.1-0.6-1.8c-0.2-2.3,1.5-4.4,3.9-4.6c1.7-0.1,3.3,0.8,4,2.2c0,0.1,0.1,0.1,0.1,0.2c0.2,0.4,0.4,0.9,0.4,1.5
				C69.2,51.1,67.5,53.2,65.2,53.4z"/>
			<path id="XMLID_1_" class="st4" d="M65.2,53.4c-1.3,0.1-2.6-0.4-3.4-1.3c0,0,0,0,0,0c-0.1-0.1-0.2-0.3-0.3-0.4
				c-0.2-0.4-0.3-0.9-0.4-1.5c-0.2-2.3,1.5-4.4,3.9-4.6c1.4-0.1,2.8,0.5,3.6,1.5c0,0.1,0.1,0.1,0.1,0.2c0.2,0.4,0.4,0.9,0.4,1.5
				C69.2,51.1,67.5,53.2,65.2,53.4z"/>
		</g>
	</g>
</g>
</svg>
