<?xml version="1.0" encoding="utf-8"?>
<!-- Generator: Adobe Illustrator 19.0.0, SVG Export Plug-In . SVG Version: 6.00 Build 0)  -->
<svg version="1.1" id="Layer_1" xmlns="http://www.w3.org/2000/svg" xmlns:xlink="http://www.w3.org/1999/xlink" x="0px" y="0px"
	 viewBox="0 0 1080 1080" style="enable-background:new 0 0 1080 1080;" xml:space="preserve">
<style type="text/css">
	.st0{fill:#ADBEC4;}
	.st1{fill:#FF8B66;}
	.st2{fill:#CFD8DC;}
	.st3{fill:#0C476B;}
	.st4{fill:#0E3944;}
	.st5{fill:#F2A668;}
	.st6{fill:#FFB878;}
	.st7{fill:#F24052;}
	.st8{fill:#EF6E4B;}
	.st9{fill:#DB614D;}
	.st10{fill:#1A4850;}
	.st11{fill:#205260;}
	.st12{fill:#8B383E;}
	.st13{fill:#662C33;}
	.st14{fill:#8BBDDB;}
	.st15{fill:#105E99;}
	.st16{fill:#6097B2;}
	.st17{fill:#07262D;}
	.st18{fill:#CE364C;}
</style>
<g id="XMLID_508_">
	<path id="XMLID_214_" class="st0" d="M155.6,885.4H16.4c-1,0-1.8-0.8-1.8-1.8v-7.4c0-1,0.8-1.8,1.8-1.8h139.2c1,0,1.8,0.8,1.8,1.8
		v7.4C157.4,884.6,156.6,885.4,155.6,885.4z"/>
	<path id="XMLID_213_" class="st0" d="M1042.3,885.4H908.1c-2.4,0-4.3-1.9-4.3-4.3v-2.3c0-2.4,1.9-4.3,4.3-4.3h134.2
		c2.4,0,4.3,1.9,4.3,4.3v2.3C1046.5,883.5,1044.6,885.4,1042.3,885.4z"/>
	<path id="XMLID_1_" class="st0" d="M342.3,885.4H203.1c-1,0-1.8-0.8-1.8-1.8v-7.4c0-1,0.8-1.8,1.8-1.8h139.2c1,0,1.8,0.8,1.8,1.8
		v7.4C344.1,884.6,343.3,885.4,342.3,885.4z"/>
	<path id="XMLID_212_" class="st0" d="M595.4,885.4h-222c-1,0-1.8-0.8-1.8-1.8v-7.4c0-1,0.8-1.8,1.8-1.8h222c1,0,1.8,0.8,1.8,1.8
		v7.4C597.1,884.6,596.3,885.4,595.4,885.4z"/>
	<path id="XMLID_211_" class="st0" d="M839.1,885.4H624.3c-1,0-1.8-0.8-1.8-1.8v-7.4c0-1,0.8-1.8,1.8-1.8h214.7c1,0,1.8,0.8,1.8,1.8
		v7.4C840.8,884.6,840.1,885.4,839.1,885.4z"/>
</g>
<g id="XMLID_446_">
	<path id="XMLID_210_" class="st1" d="M79.1,708.8c0,0,36.6,97.5,38.8,128.2c0,0,9.2,7.3,24.8,0.8c0,0,0.4-93.2-14.9-122
		C112.5,687,79.1,708.8,79.1,708.8z"/>
	<g id="XMLID_501_">
		<path id="XMLID_209_" class="st2" d="M71.1,879.9h77.1c3.3-12.2-1.7-22.5-1.7-22.5s3.4-13.3,2.1-17.7c-1.3-4.4-17.1-9.7-21.4-5.1
			c-3,3.1-3.1,7.2-2.9,9.5c-2.2-12.2-7.7-13.2-13.1-8.4c-5.6,5,1.2,2.5,0.1,10.4c-0.1,0.6-0.2,1.1-0.4,1.6c-0.4,1.1-1.1,2.1-2.1,3.1
			c-0.8,0.8-1.9,1.6-3.1,2.3c-0.6,0.4-1.2,0.7-1.9,1c-1.3,0.6-2.6,1.1-4.1,1.5c-2.3,0.7-4.7,1.1-7.3,1.4c-10.6,1-14.8,1.7-19.6,7.2
			c-4.9,5.4-1.8,9.8-1.8,9.8L71.1,879.9z"/>
		<g id="XMLID_502_">
			<path id="XMLID_208_" class="st0" d="M110.8,847.7c-0.4,1.1-1.1,2.1-2.1,3.1c6.7-2.8,10.7,2.2,10.7,2.2l2-2.5
				C116.5,844.5,111.2,847.4,110.8,847.7z"/>
			<path id="XMLID_207_" class="st0" d="M112.3,858.6l2.7-1.7c-1.5-4.4-4.3-5.7-6.4-6.1c-0.8,0.8-1.9,1.6-3.1,2.3
				C110.8,854,112.3,858.6,112.3,858.6z"/>
			<path id="XMLID_206_" class="st0" d="M104.9,861.5l2.8-1.4c-0.8-3.3-2.4-5.1-4-6c-1.3,0.6-2.6,1.1-4.1,1.5
				C103.9,857.3,104.9,861.5,104.9,861.5z"/>
		</g>
	</g>
	<path id="XMLID_205_" class="st2" d="M236.3,861.4c2.1-1.1,4-3.5,5.8-6.6c0,0,1.5-9.1,0-18.6c-1.5-9.5,2.7-17.3,16.2-20.3
		c13.1-2.8,20.9,3.5,17.9,29.9c0,0,0,0,0,0c2,11,2.4,23.5-2.1,34.1h-40.5C233.6,879.9,227.2,866.2,236.3,861.4z"/>
	<path id="XMLID_204_" class="st1" d="M200.8,719c0,0,0,26.4,14.9,53.4c15.1,27.5,33.9,65.3,33.9,65.3s12.5,12.2,20.4-8
		c0,0-5.6-70.2-18.4-95.9C238.7,708.2,200.8,719,200.8,719z"/>
	<g id="XMLID_494_">
		<path id="XMLID_203_" class="st2" d="M267.1,840.2c0,0,3.7-7.6,0.4-10.9c-3.3-3.3-7.3,2.8-13,1.5c-5.7-1.4-7-5.4-8.5,0.1
			C244.5,836.4,246.3,853.7,267.1,840.2z"/>
		<path id="XMLID_202_" class="st0" d="M245.6,839.9c0,0,15.3,5.4,23.2,0l-2,6.6c0,0-16.6,1.8-18.9-2.4L245.6,839.9z"/>
		<path id="XMLID_201_" class="st0" d="M245.8,848.1c0,0,14-1.9,20.8,1.5v3.3c0,0-18.3-4.3-24.2,0L245.8,848.1z"/>
		<path id="XMLID_200_" class="st0" d="M267.3,859.7c0,0-2.7-6.6-11.2-7.1c-8.5-0.5-14.3,4.2-14.3,4.2S255.3,851.3,267.3,859.7z"/>
	</g>
	<g id="XMLID_481_">
		<g id="XMLID_492_">
			<path id="XMLID_199_" class="st3" d="M263.3,712.1c0,0-1.4,3.3-4.6,7.6c-0.4,0.5-0.8,1-1.2,1.6c-8.4,10.4-27,24.3-60.8,10.6
				c0,0-0.9-1.9-2-5c-0.2-0.5-0.4-1.1-0.7-1.7c-2.1-5.5-4.8-13.5-6.1-20.3c-8.8-49.1-12.1-84.7-16.8-104.9
				c-13,31.4-42.2,92.2-43.5,94.8c-1.6,3.2,4.9,24.2,4.9,24.2c-24.4,7.9-59.2-2.2-59.2-2.2s-10.6-30.9-12.2-53
				c-1.2-16.9,41.3-111.6,61.3-155c0.5-1.1,1-2.2,1.5-3.3c5.3-11.4,8.6-18.5,8.6-18.5l34.1,11.5l82.8,37.3c0,0,1.5,1.7,2.8,18.7
				c0,0.4,0.1,0.9,0.1,1.4c0.8,10.2,1.5,25.4,1.9,48.2v1.4c0.1,5,0.2,10.3,0.2,16v1.4c0.1,13.1,0.1,28.1,0,45.5c0,0.5,0,0.9,0,1.4
				c0,5.4-0.1,11-0.1,16.8c0,5.3,4.1,15.3,6.8,21.1c0.2,0.5,0.4,0.9,0.6,1.4C262.8,710.9,263.3,712.1,263.3,712.1z"/>
		</g>
		<g id="XMLID_490_">
			<path id="XMLID_198_" class="st4" d="M258.8,719.7c-0.4,0.5-0.8,1-1.2,1.6c-3.8-6.4-9.6-17.4-11-24.9c-2-10.8-2.9-53.1,0-97.6
				c2.8-43.2-6.7-85.5-6.8-86l1.8-0.4c0.1,0.4,9.7,43,6.8,86.5c-2.9,44.4-2,86.5,0,97.2C249.6,702.9,255.1,713.3,258.8,719.7z"/>
		</g>
		<g id="XMLID_488_">
			<path id="XMLID_197_" class="st4" d="M246,550c-26.5-9.5-33.2-31.2-33.3-31.5l1.8-0.5c0.1,0.2,6.6,21,32.1,30.3L246,550z"/>
		</g>
		<g id="XMLID_486_">
			<path id="XMLID_196_" class="st4" d="M148.3,501.5c-0.6,0.4-1.6,0.5-3.9,0.6c-5.1,0.3-14.5,0.9-21.9,6.7c0.5-1.1,1-2.2,1.5-3.3
				c7.3-4.5,15.6-5,20.3-5.3c1.3-0.1,2.7-0.2,3-0.3L148.3,501.5z"/>
		</g>
		<g id="XMLID_484_">
			<path id="XMLID_195_" class="st4" d="M170.4,600.4c-19.2-38.4,5.7-89.9,5.9-90.5l1.6,0.8c-0.2,0.5-24.7,51.3-5.9,88.8
				L170.4,600.4z"/>
		</g>
		<g id="XMLID_482_">
			<path id="XMLID_194_" class="st4" d="M166.6,562.9c-1.7,0-2.8-0.4-2.9-0.4l0.6-1.7c0,0,3.6,1.1,6.8-1c2.8-1.8,4.5-5.4,5.2-10.8
				c1.9-16.2,14.3-36.2,14.8-37.1l1.5,1c-0.1,0.2-12.7,20.5-14.6,36.3c-0.7,6-2.7,10-6,12.2C170.1,562.6,168.1,562.9,166.6,562.9z"
				/>
		</g>
	</g>
	<path id="XMLID_193_" class="st5" d="M73.9,140.1c0,0,3-6.9,15.7-6.9c9.8,0,13.5,5.4,13.5,5.4c5.9,17.1,12.2,82.7,14.4,85
		c1.1,1.2,74.2,57,74.2,57c-39.4,0.7-40.9,66.2-40.9,66.2c-1.3-16-56.2-56.2-70.2-82.5C67.6,239.9,61.3,180,73.9,140.1z"/>
	<g id="XMLID_478_">
		<path id="XMLID_192_" class="st6" d="M310.3,374.2c-6,66.1-29.9,129.9-38.1,156.6c-1.8,5.7-2.8,9-2.8,9s-129.6-16.8-145-51.8
			c0,0,0.2-0.9,0.7-2.8c3.9-15.9,23-80.4,25.2-133.2c2.4-58.7,22.1-79.5,34-76.8c0,0,26.8,21.2,44,21.1c17.1,0,58.1-18.7,58.1-18.7
			S317.6,293.8,310.3,374.2z"/>
	</g>
	<circle id="XMLID_191_" class="st7" cx="228.4" cy="264.4" r="7.8"/>
	<path id="XMLID_190_" class="st5" d="M388.6,144.8c0,0-3-6.9-15.7-6.9c-9.8,0-13.5,5.4-13.5,5.4c-5.9,17.1-12.2,82.7-14.4,85
		c-1.1,1.2-74.2,57-74.2,57c-1.8,45.8,40.9,66.2,40.9,66.2c1.3-16,56.2-56.2,70.2-82.5C394.9,244.6,401.2,184.7,388.6,144.8z"/>
	<path id="XMLID_189_" class="st5" d="M212,295.3c0,0-7.1,2.8-8.6,5.9c-1.5,3.1,4,15.8,14.5,16.7c10.5,1,30.3-11.1,29.5-15
		C246.6,299.1,231.8,294,212,295.3z"/>
	<path id="XMLID_188_" class="st8" d="M211,280.6c0,0,3.9,16.1-2.1,22.5c0,0,9.7,15.7,31.7-0.2c0,0-4.2-10.6,0-17.5L211,280.6z"/>
	<g id="XMLID_457_">
		<path id="XMLID_187_" class="st7" d="M273.1,236.8c0-3.9-2.8-7.1-6.4-7.8c1.4-1.4,2.3-3.4,2.3-5.6c0-4.3-3.4-7.8-7.7-7.9
			c0.8-1.2,1.3-2.7,1.3-4.3c0-4.4-3.5-7.9-7.9-7.9c-1.9,0-3.6,0.7-4.9,1.8c0-4.4-3.6-7.9-7.9-7.9c-2.8,0-5.2,1.4-6.6,3.6
			c-1.1-3.1-4-5.4-7.5-5.4c-2.9,0-5.5,1.6-6.9,4c-1.4-1.4-3.3-2.2-5.5-2.2c-4.2,0-7.6,3.2-7.9,7.3c-1.2-0.8-2.7-1.2-4.2-1.2
			c-4.4,0-7.9,3.5-7.9,7.9c0,0.6,0.1,1.2,0.2,1.8c-0.1,0-0.2,0-0.2,0c-4.4,0-7.9,3.5-7.9,7.9c0,2.1,0.9,4.1,2.2,5.5
			c-3.6,0.7-6.4,3.9-6.4,7.8c0,3.4,2.2,6.3,5.2,7.4c-2,1.4-3.3,3.8-3.3,6.4c0,4,3,7.3,6.9,7.8c2.1,7.3,7.2,9.9,7.2,9.9
			c3.6,3.3,32.8,6.6,46.8,5.4c1.4,1.5,3.4,2.4,5.7,2.4c4.4,0,7.9-3.5,7.9-7.9c0,0,0-0.1,0-0.1c4-0.4,7.1-3.7,7.1-7.8
			c0-0.7-0.1-1.4-0.3-2.1c2.9-1.2,4.9-4,4.9-7.3c0-1.9-0.7-3.6-1.8-5C271.7,242,273.1,239.6,273.1,236.8z"/>
		<path id="XMLID_186_" class="st1" d="M254.1,251.7c0,0,8.3-8.3,9.3,1.4c1.2,11.2-9,15.7-11,12.1
			C250.4,261.7,254.1,251.7,254.1,251.7z"/>
		<path id="XMLID_185_" class="st1" d="M196.1,252.3c0,0-8.3-8.3-9.3,1.4c-1.2,11.2,9,15.7,11,12.1
			C199.8,262.3,196.1,252.3,196.1,252.3z"/>
		<path id="XMLID_184_" class="st1" d="M226,292.2c18.4,0,28.7-12,28.7-47.9c0-18.5-9.4-29.9-30-29.9c-20.6,0-29.2,11.4-29.2,29.9
			C195.5,282.9,207,292.2,226,292.2z"/>
		
			<ellipse id="XMLID_183_" transform="matrix(-0.9851 -0.1719 0.1719 -0.9851 364.0802 547.2048)" class="st9" cx="205.7" cy="257.8" rx="4.2" ry="3.4"/>
		
			<ellipse id="XMLID_182_" transform="matrix(-0.9979 6.509522e-02 -6.509522e-02 -0.9979 503.327 499.2853)" class="st9" cx="243.5" cy="257.8" rx="4.2" ry="3.4"/>
		<g id="XMLID_466_">
			<path id="XMLID_181_" class="st7" d="M209.6,237.8c0.2,0,0.5,0,0.7-0.2c2.9-2.2,7.3-1.5,7.4-1.4c0.5,0.1,1-0.2,1.1-0.7
				c0.1-0.5-0.2-1-0.7-1.1c-0.2,0-5.3-1-8.8,1.8c-0.4,0.3-0.5,0.9-0.2,1.3C209.2,237.7,209.4,237.8,209.6,237.8z"/>
		</g>
		<g id="XMLID_464_">
			<path id="XMLID_180_" class="st7" d="M244.8,238c0.2,0,0.4-0.1,0.6-0.3c0.3-0.4,0.3-1-0.1-1.3c-3.5-2.8-8.6-2.1-8.8-2.1
				c-0.5,0.1-0.8,0.5-0.8,1c0.1,0.5,0.6,0.8,1,0.8c0,0,4.5-0.6,7.3,1.7C244.3,237.9,244.5,238,244.8,238z"/>
		</g>
		<ellipse id="XMLID_179_" class="st10" cx="213.8" cy="248.2" rx="2.3" ry="4.1"/>
		<ellipse id="XMLID_178_" class="st10" cx="238.3" cy="248.2" rx="2.3" ry="4.1"/>
		<path id="XMLID_177_" class="st7" d="M246.5,223.2c0,0-12.8-0.9-40.8-2.9c0,0-10.3,10.7-9.5,37c0,0-16.4-47.4,31.5-47.4
			c47.9,0,26.3,46.3,26.3,46.3S255.4,232,246.5,223.2z"/>
		<g id="XMLID_459_">
			<path id="XMLID_176_" class="st9" d="M224.8,260.5l1.4-1.4l-3.6-3.6c3.5-5,3.5-16.5,3.5-17l-1.9,0c0,0.1,0,12.5-3.6,16.4
				l-0.6,0.7L224.8,260.5z"/>
		</g>
		<path id="XMLID_175_" class="st10" d="M237,266.5c0,0-18.1,0.8-27.2-1.7c0,0-1.6,13.1,12.4,13.8C237,279.3,237,266.5,237,266.5z"
			/>
	</g>
	<path id="XMLID_174_" class="st6" d="M90.9,131.5c0,0-13.6,0.6-13.6,5c0.1,4.4,0.1,9.6,11.4,9c11.4-0.6,11.5-5.1,11.6-9.3
		C100.5,131.9,94.6,131.1,90.9,131.5z"/>
	<path id="XMLID_173_" class="st6" d="M376.3,134c0,0-13.6-0.1-13.8,4.3c-0.2,4.3-0.5,9.6,10.9,9.6c11.4,0,11.7-4.5,12.1-8.7
		C385.9,134.9,380.1,133.8,376.3,134z"/>
	<g id="XMLID_452_">
		<path id="XMLID_172_" class="st1" d="M69.5,104.3c1.9,2.2,5.2,10.8,5.2,10.8c1.4,7.2,2.1,11.2,4.7,14.6c2.5,3.3,1.2,9.2,1.2,9.2
			s9.8,5.1,18.1-1.2c0,0-0.9-5.8,0-7.5c1.7-3.3,7.2-5.1,9-11.7c1.9-6.7,7.5-14.1,7.5-14.1s-1.6-3.5-4.5-1.4c-2.9,2.1-4.8,7.5-6.4,8
			c-0.3,0.1-0.6,0.2-1,0.2c0,0,0,0-0.1,0c-1.2,0.2-2.5-0.1-3.2-0.8c-0.1,0-0.1-0.1-0.2-0.2c-2.7-3.1-3.3-12.2-3.2-16.3
			c0.2-5.7-0.1-13.5-3.5-12.2c-3.5,1.3-0.3,4.5-3,17L88.8,99c-0.2,0.9-2.6-7.6-3.2-15.6c-0.4-5.5-4-3.5-4.8-1.7
			c-0.8,1.7,0.4,7.2,0.6,11.2c0.2,2.6,0.4,5.4,0.5,7l-1.5,0.8C75,91.1,76.9,87.2,73.7,87c-3.2-0.2-2,7.8-0.3,10.9
			c0.7,1.3,1.4,4.1,2,6.8c-5.6-6.5-5-9.8-7.5-9.4C65.2,95.7,67.6,102.1,69.5,104.3z"/>
		<path id="XMLID_171_" class="st8" d="M93.7,119.2c1.9-5.2,8.7-7.6,9.5-7.9c-1.2,0.2-2.5-0.1-3.2-0.8
			C93.3,113.5,93.7,119.2,93.7,119.2z"/>
	</g>
	<g id="XMLID_449_">
		<path id="XMLID_170_" class="st1" d="M393.5,106.1c-1.9,2.2-5.2,10.8-5.2,10.8c-1.4,7.2-2.1,11.2-4.7,14.6
			c-2.5,3.3-1.2,9.2-1.2,9.2s-9.8,5.1-18.1-1.2c0,0,0.9-5.8,0-7.5c-1.7-3.3-7.2-5.1-9-11.7c-1.9-6.7-7.5-14.1-7.5-14.1
			s1.6-3.5,4.5-1.4c2.9,2.1,4.8,7.5,6.4,8c0.3,0.1,0.6,0.2,1,0.2c0,0,0,0,0.1,0c1.2,0.2,2.5-0.1,3.2-0.8c0.1,0,0.1-0.1,0.2-0.2
			c2.7-3.1,3.3-12.2,3.2-16.3c-0.2-5.7,0.1-13.5,3.5-12.2c3.5,1.3,0.3,4.5,3,17l1.3,0.2c0.2,0.9,2.6-7.6,3.2-15.6
			c0.4-5.5,4-3.5,4.8-1.7c0.8,1.7-0.4,7.2-0.6,11.2c-0.2,2.6-0.4,5.4-0.5,7l1.5,0.8c5.5-9.5,3.6-13.5,6.8-13.7
			c3.2-0.2,2,7.8,0.3,10.9c-0.7,1.3-1.4,4.1-2,6.8c5.6-6.5,5-9.8,7.5-9.4C397.8,97.5,395.4,103.9,393.5,106.1z"/>
		<path id="XMLID_169_" class="st8" d="M369.3,121c-1.9-5.2-8.7-7.6-9.5-7.9c1.2,0.2,2.5-0.1,3.2-0.8
			C369.6,115.3,369.3,121,369.3,121z"/>
	</g>
	<g id="XMLID_447_">
		<path id="XMLID_168_" class="st5" d="M272.2,530.7c-1.8,5.7-2.8,9-2.8,9s-129.6-16.8-145-51.8c0,0,0.2-0.9,0.7-2.8
			C133.3,498.8,232.6,532,272.2,530.7z"/>
	</g>
</g>
<g id="XMLID_369_">
	<g id="XMLID_443_">
		<path id="XMLID_167_" class="st4" d="M745.9,879.9h63c4.4-25.1-2.6-50.1-2.6-50.1l-28.8-4.9c-2.6,15.8-5.8,22.1-10.2,25.3
			c0,0,0,0,0,0c-3.2,2.3-7,3.1-11.8,4.7c-5.4,1.9-8.3,5.3-9.7,9.1C743,871.3,745.9,879.9,745.9,879.9z"/>
		<path id="XMLID_166_" class="st11" d="M745.8,863.9c15.5,1.9,49.7,5.3,47.6-3.7c-1.7-7.5-16.1-9.5-26.1-10.1c0,0,0,0,0,0
			c-3.2,2.3-7,3.1-11.8,4.7C750.1,856.7,747.3,860.1,745.8,863.9z"/>
	</g>
	<g id="XMLID_440_">
		<path id="XMLID_165_" class="st4" d="M957.1,879.9h63c0,0,2-5.9,1.1-12.1c-0.8-5.1-3.5-10.4-10.7-12.9c-5.5-1.9-9.7-2.6-13.1-5.8
			c-3.7-3.5-6.5-10-8.9-24.2l-28.8,4.9C959.7,829.7,952.7,854.8,957.1,879.9z"/>
		<path id="XMLID_164_" class="st11" d="M1021.2,867.7c-0.8-5.1-3.5-10.4-10.7-12.9c-5.5-1.9-9.7-2.6-13.1-5.8
			c-8,2.5-19.1,7-22.6,13.8C969.9,872.2,1006.8,870.7,1021.2,867.7z"/>
	</g>
	<g id="XMLID_434_">
		<g id="XMLID_438_">
			<path id="XMLID_163_" class="st12" d="M993,829.1c0,0-4.8,15.7-36.2,4.8c0,0-23.3-175.2-26.9-179.1
				c-3.6-3.9-40.6-118.3-40.6-118.3h-11.6c0,0-37,114.4-40.6,118.3c-3.6,3.8-26.9,179.1-26.9,179.1c-31.4,10.8-36.2-4.8-36.2-4.8
				L789,640.2l31.5-194.8l63,7l63-7l8.2,50.9l0.3,2l22.9,141.9L993,829.1z"/>
		</g>
		<g id="XMLID_435_">
			<path id="XMLID_162_" class="st13" d="M955,498.2c-21.8-5.6-28.2-25.2-28.3-25.4l1.8-0.5c0.1,0.2,6,18.3,26.2,23.9L955,498.2z"/>
			<path id="XMLID_161_" class="st13" d="M887.8,519.2c-1.7,1.8-3.8,2.7-6.4,2.7c0.1,4.7,0,9.7-0.3,14.6h-1.8
				c1-20.5-1.3-41.3-1.3-41.5l1.8-0.2c0,0.2,1.3,11.3,1.6,25.3c2.1,0,3.8-0.7,5.1-2c6-6.4,2.5-24.7,2.5-24.9l1.8-0.3
				C890.9,493.5,894.5,512.2,887.8,519.2z"/>
		</g>
	</g>
	<g id="XMLID_431_">
		<path id="XMLID_160_" class="st1" d="M1057.6,102.7c-2.9,0.6-10.7,5.5-10.7,5.5c-5.4,5-8.5,7.7-12.5,8.8c-4,1.1-4.3,8.5-4.3,8.5
			s-15.4,6.6-18.3-3.4c0,0,6.6-14.4,6.9-16.3c0.6-3.7-2.7-8.4-0.2-14.8c2.5-6.5,2.5-15.8,2.5-15.8s3.4-1.8,4.4,1.6
			c1.1,3.5-0.7,8.9,0.3,10.2c0.2,0.3,0.4,0.5,0.6,0.8c0,0,0,0,0,0.1c0.9,0.9,2,1.4,3.1,1.3c0.1,0,0.2,0,0.2,0
			c4-0.9,10-7.8,12.4-11.1c3.3-4.6,8.2-10.8,10.2-7.6c2,3.1-2.5,3.8-7.9,15.4l0.9,0.9c-0.3,0.9,6.7-4.5,11.9-10.5
			c3.6-4.1,5.3-0.4,4.9,1.5c-0.4,1.9-4.7,5.5-7.2,8.5c-1.7,2-3.5,4-4.6,5.2l0.7,1.6c10.1-4.3,11-8.6,13.6-6.8
			c2.6,1.8-3.1,7.5-6.3,8.9c-1.4,0.6-3.6,2.4-5.7,4.2c8.4-1.8,9.9-4.9,11.7-3C1066.3,98.5,1060.5,102.1,1057.6,102.7z"/>
		<path id="XMLID_159_" class="st8" d="M1029.3,100.1c1.6-5.3-2.3-11.3-2.8-12c0.9,0.9,2,1.4,3.1,1.3
			C1033.1,95.7,1029.3,100.1,1029.3,100.1z"/>
	</g>
	<g id="XMLID_428_">
		<path id="XMLID_158_" class="st1" d="M584.3,192.9c2.9-0.5,11.9,1.2,11.9,1.2c6.9,2.6,10.7,4,14.9,3.6c4.1-0.4,7.2,6.3,7.2,6.3
			s16.8,0.5,15.7-9.9c0,0-11.4-11-12.4-12.6c-1.9-3.2-0.6-8.7-5.3-13.8c-4.7-5.1-8.2-13.7-8.2-13.7s-3.8-0.4-3.5,3.2
			c0.3,3.6,3.9,8,3.5,9.6c-0.1,0.3-0.2,0.7-0.3,0.9c0,0,0,0,0,0.1c-0.5,1.1-1.4,2-2.4,2.3c-0.1,0-0.1,0.1-0.2,0.1
			c-4,0.7-12.2-3.6-15.6-5.8c-4.8-3.1-11.6-7-12.2-3.4c-0.7,3.6,3.7,2.6,13,11.4l-0.5,1.2c0.6,0.7-7.9-1.7-15-5.4
			c-4.9-2.5-5,1.6-4,3.2c1.1,1.6,6.4,3.4,9.9,5.3c2.3,1.2,4.8,2.4,6.2,3.2l-0.1,1.7c-11-0.3-13.4-3.9-15.2-1.3
			c-1.8,2.6,5.6,5.8,9.1,6c1.5,0.1,4.2,0.9,6.8,1.8c-8.4,1.4-11-0.9-12,1.5C574.7,192.1,581.4,193.4,584.3,192.9z"/>
		<path id="XMLID_157_" class="st8" d="M609.6,180c-3.5-4.3-2-11.3-1.8-12.2c-0.5,1.1-1.4,2-2.4,2.3
			C604.6,177.3,609.6,180,609.6,180z"/>
	</g>
	<g id="XMLID_415_">
		<g id="XMLID_426_">
			<path id="XMLID_156_" class="st2" d="M1034.2,128.7c0,0-1.7,6.2-4.4,15.5c-1.1,3.8-2.4,8.1-3.8,12.8c-2.2,7.2-4.7,15.1-7.4,23
				c-1.4,4.3-2.9,8.6-4.4,12.7c-3.8,10.5-7.8,20.2-11.4,27c-0.5,0.9-1,1.9-1.5,2.7c-1.4,2.3-3.5,5-6.1,8
				c-4.2,4.8-9.8,10.4-16.2,16.3c-3.2,2.9-6.6,6-10.1,9c-5.7,4.9-11.7,10-17.6,14.8c-3.7,3-7.4,6-10.9,8.8
				c-18.2,14.5-33.3,25.7-33.3,25.7l-27.2-55.6c7.8-5.3,22.1-14.1,37.1-23.1c3.5-2.1,7.1-4.3,10.6-6.4c5.5-3.3,10.9-6.5,15.8-9.4
				c3.9-2.3,7.5-4.5,10.8-6.4c4.7-2.8,8.6-5,11.4-6.7c3-1.8,4.8-2.8,4.8-2.8s1.2-2.4,3.3-6.4c2.4-4.7,6-11.6,10.1-19.4
				c1.8-3.5,3.7-7.1,5.7-10.8c3.1-5.9,6.3-12,9.4-17.8c2-3.7,4-7.4,5.9-10.8c5.2-9.4,9.6-17,11.9-20
				C1016.6,109.4,1030.6,114.1,1034.2,128.7z"/>
		</g>
		<g id="XMLID_424_">
			<path id="XMLID_155_" class="st14" d="M951.4,270.5c-3.7,3-7.4,6-10.9,8.8c-3.2-25.2-15.4-43.4-23.5-53c3.5-2.1,7.1-4.3,10.6-6.4
				C935.8,230,946.9,247.2,951.4,270.5z"/>
		</g>
		<g id="XMLID_422_">
			<path id="XMLID_154_" class="st14" d="M979,246.7c-3.2,2.9-6.6,6-10.1,9c-6.4-24.1-18-38.2-25.6-45.2c3.9-2.3,7.5-4.5,10.8-6.4
				C962.2,212.2,972.4,225.9,979,246.7z"/>
		</g>
		<g id="XMLID_420_">
			<path id="XMLID_153_" class="st14" d="M1002.8,219.7c-0.5,0.9-1,1.9-1.5,2.7c-1.4,2.3-3.5,5-6.1,8c-10.5-16.7-21.8-27.1-29.6-33
				c3-1.8,4.8-2.8,4.8-2.8s1.2-2.4,3.3-6.4C981.7,194.4,992.5,204.4,1002.8,219.7z"/>
		</g>
		<g id="XMLID_418_">
			<path id="XMLID_152_" class="st14" d="M1018.7,180c-1.4,4.3-2.9,8.6-4.4,12.7c-10.4-10.8-22.5-19-30.5-23.9
				c1.8-3.5,3.7-7.1,5.7-10.8C997,162.5,1008.2,170,1018.7,180z"/>
		</g>
		<g id="XMLID_416_">
			<path id="XMLID_151_" class="st14" d="M1029.8,144.2c-1.1,3.8-2.4,8.1-3.8,12.8c-9.3-8.5-20.1-13.9-27.2-16.8
				c2-3.7,4-7.4,5.9-10.8C1011.6,132.3,1020.9,137.1,1029.8,144.2z"/>
		</g>
	</g>
	<g id="XMLID_402_">
		<g id="XMLID_413_">
			<path id="XMLID_150_" class="st2" d="M804.2,263.8l-4.9,61.7c0,0-17.1-4.6-38.4-11.1c-4.1-1.2-8.4-2.6-12.7-3.9
				c-7.6-2.4-15.4-5-23-7.6c-4.1-1.4-8.1-2.9-12-4.4c-9.1-3.4-17.2-6.8-23.5-10.1c-3.4-1.8-6.3-3.5-8.4-5.1
				c-0.7-0.5-1.4-1.1-2.2-1.8c-5.1-4.3-11.3-10.9-17.9-18.3c-2.7-3.1-5.5-6.4-8.3-9.7c-5.5-6.6-11-13.5-16-19.9
				c-2.7-3.4-5.2-6.7-7.6-9.8c-8.6-11.3-14.6-19.7-14.6-19.7c0.6-14.4,11.3-18.5,11.3-18.5c3.8,2.3,12.7,9.3,23,17.8
				c3.1,2.5,6.3,5.1,9.5,7.8c5.5,4.5,11.1,9.2,16.2,13.6c3.3,2.8,6.5,5.4,9.4,7.9c4.7,4,8.7,7.5,11.5,9.8c2.7,2.3,4.2,3.6,4.2,3.6
				s2.6,0.4,7.1,1.1c3.9,0.6,9.4,1.5,15.6,2.5c3.8,0.6,7.9,1.2,12.3,1.9c5.3,0.9,11,1.8,16.7,2.7c4,0.7,8.1,1.3,12.1,2
				C780.1,259.1,795.5,261.9,804.2,263.8z"/>
		</g>
		<g id="XMLID_411_">
			<path id="XMLID_149_" class="st14" d="M760.9,314.5c-4.1-1.2-8.4-2.6-12.7-3.9c-2.3-23.9,0.3-43.2,3.4-56.2c4,0.7,8.1,1.3,12.1,2
				C760.7,269.2,757.8,289.4,760.9,314.5z"/>
		</g>
		<g id="XMLID_409_">
			<path id="XMLID_148_" class="st14" d="M734.9,251.6c-3.8,10.7-8.9,28.9-9.7,51.3c-4.1-1.4-8.1-2.9-12-4.4
				c1.1-20.8,5.6-37.8,9.4-48.9C726.5,250.3,730.6,250.9,734.9,251.6z"/>
		</g>
		<g id="XMLID_407_">
			<path id="XMLID_147_" class="st14" d="M707.1,247.2c-5.9,11.2-13,26.3-17.3,41.2c-3.4-1.8-6.3-3.5-8.4-5.1
				c-0.7-0.5-1.4-1.1-2.2-1.8c4.5-14.3,11-28.3,16.6-39c2.7,2.3,4.2,3.6,4.2,3.6S702.6,246.5,707.1,247.2z"/>
		</g>
		<g id="XMLID_405_">
			<path id="XMLID_146_" class="st14" d="M684.2,232.7c-6.8,7.9-15.8,18.9-22.9,30.6c-2.7-3.1-5.5-6.4-8.3-9.7
				c7.2-11.1,15.4-21.3,21.9-28.7C678.2,227.6,681.3,230.2,684.2,232.7z"/>
		</g>
		<g id="XMLID_403_">
			<path id="XMLID_145_" class="st14" d="M658.6,211.2c-6.4,5.8-14.6,13.9-21.6,22.4c-2.7-3.4-5.2-6.7-7.6-9.8
				c6.5-7.7,13.7-14.9,19.7-20.4C652.1,205.9,655.4,208.5,658.6,211.2z"/>
		</g>
	</g>
	<g id="XMLID_388_">
		<path id="XMLID_144_" class="st2" d="M967.2,460.1c0,0-34.1,35.6-80.4,44.4c-40.6,7.7-77.2,7.8-77.2,7.8s-2.1-9.3-5.3-23.8
			c-0.8-3.7-1.7-7.9-2.7-12.2c-1.7-7.9-3.6-16.7-5.6-26c-0.9-4-1.7-8-2.6-12.2c-1.6-7.6-3.2-15.4-4.9-23.2c-0.8-4-1.7-8.1-2.5-12.1
			c-2-9.9-4-19.7-5.8-29c-0.8-4.2-1.6-8.3-2.3-12.3c-2.1-11.2-3.9-21.2-5.2-29.4c-0.8-4.9-1.3-9.1-1.7-12.5
			c-0.1-1.2-0.2-2.3-0.3-3.3c-0.6-8.4-0.9-16.3-1-23.3c-0.1-4.6,0-8.8,0-12.6c0.2-13.4,1-21.6,1-21.6c9.6-6.6,75.9,14.7,75.9,14.7
			s49-42.2,56.6-39.1c4.3,1.7,8.4,5.6,12.4,11.1c2.2,3.1,4.4,6.8,6.4,11c3.5,6.9,6.8,15.1,9.9,24.2c1.4,4.2,2.8,8.6,4.2,13.1
			c2.2,7.5,4.3,15.3,6.4,23.4c1,4.1,2,8.3,2.9,12.4c1.8,7.9,3.5,15.9,5.1,23.9c0.9,4.2,1.7,8.4,2.4,12.6c1.3,7.2,2.6,14.3,3.7,21.2
			c0.8,4.4,1.5,8.8,2.1,13c1.5,9.4,2.8,18.1,3.9,25.9c0.7,4.7,1.2,9.1,1.8,13C966.4,452.2,967.2,460.1,967.2,460.1z"/>
		<g id="XMLID_399_">
			<path id="XMLID_143_" class="st14" d="M922.3,256.6c-14.8,15.1-40.9,37.3-70.9,43.3c-6,1.2-12.7,1.7-19.8,1.7
				c-19.5,0-42-3.9-61.7-8.5c-0.1-4.6,0-8.8,0-12.6c26.2,6.3,58,11.7,79.1,7.5c28.3-5.6,53.6-28.5,66.8-42.3
				C918.1,248.7,920.2,252.4,922.3,256.6z"/>
		</g>
		<g id="XMLID_397_">
			<path id="XMLID_142_" class="st14" d="M936.4,293.9c-15.1,14.2-53.1,40.7-125.2,40.7c-11.8,0-24.5-0.7-38.2-2.3
				c-0.8-4.9-1.3-9.1-1.7-12.5c105.1,13,150.8-28,161-39C933.6,285,935,289.3,936.4,293.9z"/>
		</g>
		<g id="XMLID_395_">
			<path id="XMLID_141_" class="st14" d="M945.7,329.7c-29.3,16.5-89.1,44.3-159.7,44.3c-1.8,0-3.7,0-5.5-0.1
				c-0.8-4.2-1.6-8.3-2.3-12.3c73.3,2.1,136.8-28.5,164.6-44.4C943.7,321.4,944.7,325.5,945.7,329.7z"/>
		</g>
		<g id="XMLID_393_">
			<path id="XMLID_140_" class="st14" d="M953.2,366.3c-25.4,13.9-90,45-164.5,48.8c-0.8-4-1.7-8.1-2.5-12.1
				c75.8-3.5,142.8-37.3,164.5-49.3C951.6,357.9,952.4,362.1,953.2,366.3z"/>
		</g>
		<g id="XMLID_391_">
			<path id="XMLID_139_" class="st14" d="M959.1,400.4c-29,17-92.3,48.7-162.9,49.9c-0.9-4-1.7-8-2.6-12.2
				c71.6-0.6,137.3-35.2,163.3-50.8C957.7,391.9,958.4,396.2,959.1,400.4z"/>
		</g>
		<g id="XMLID_389_">
			<path id="XMLID_138_" class="st14" d="M964.7,439.3c-29.9,16.7-96.1,49.3-156,49.3c-1.4,0-2.9,0-4.3-0.1
				c-0.8-3.7-1.7-7.9-2.7-12.2c61,2.8,133.6-34.4,161.2-50C963.6,431.1,964.2,435.4,964.7,439.3z"/>
		</g>
	</g>
	<path id="XMLID_137_" class="st8" d="M856,248.9c0,0-2,16.5,4.1,21.6c0,0-3.1,11.8-12.2,14c-10.6,2.6-16.5-8.5-16.5-8.5
		s2.8-16.1-3.9-20.3L856,248.9z"/>
	<g id="XMLID_370_">
		<path id="XMLID_136_" class="st15" d="M864,213.9c0,0,6.4-10.9-9-28.2c0,0-7.3-16.6-32.5-20.4c-25.2-3.8-43.8,23.6-43.8,38.7
			c0,15.1,8.9,0,8.9,0s2,10.6,4.9,15.3c0,0-0.9,15.2,8.7,15.2C810.7,234.5,864,213.9,864,213.9z"/>
		<path id="XMLID_135_" class="st1" d="M806.2,232.1c0,0-10-5-8,4.1c2.3,10.5,12.9,11.5,13.6,7.7
			C812.5,240.1,806.2,232.1,806.2,232.1z"/>
		<path id="XMLID_134_" class="st1" d="M858.9,215.1c0,0,5-10,8.8-1.6c4.5,9.8-3.4,16.9-6.2,14.3
			C858.6,225.2,858.9,215.1,858.9,215.1z"/>
		<path id="XMLID_133_" class="st1" d="M844,260.3c-16.6,5.6-29.7-2.1-40.6-34.7c-5.6-16.8-0.5-30,18.1-36.2
			c18.6-6.2,29.9,1.4,35.6,18.2C868.8,242.6,861.1,254.5,844,260.3z"/>
		
			<ellipse id="XMLID_132_" transform="matrix(0.8794 -0.4761 0.4761 0.8794 -3.4251 432.4371)" class="st9" cx="851.8" cy="223" rx="4.1" ry="3.2"/>
		
			<ellipse id="XMLID_131_" transform="matrix(0.9668 -0.2556 0.2556 0.9668 -32.7716 216.7459)" class="st9" cx="817.6" cy="234.5" rx="4.1" ry="3.2"/>
		<g id="XMLID_379_">
			<path id="XMLID_130_" class="st6" d="M842.1,206.7c-0.2,0.1-0.5,0.1-0.7-0.1c-3.1-1.6-7.1-0.2-7.2-0.2c-0.4,0.2-1-0.1-1.1-0.5
				c-0.2-0.5,0.1-1,0.5-1.1c0.2-0.1,4.8-1.7,8.6,0.3c0.4,0.2,0.6,0.8,0.4,1.2C842.5,206.5,842.3,206.6,842.1,206.7z"/>
		</g>
		<g id="XMLID_377_">
			<path id="XMLID_129_" class="st6" d="M810.8,217.2c-0.2,0.1-0.4,0.1-0.6,0c-0.4-0.2-0.6-0.7-0.4-1.2c1.8-3.9,6.5-5.3,6.7-5.4
				c0.5-0.1,1,0.1,1.1,0.6c0.1,0.5-0.1,1-0.6,1.1c0,0-4.1,1.3-5.6,4.5C811.2,217,811,217.1,810.8,217.2z"/>
		</g>
		
			<ellipse id="XMLID_128_" transform="matrix(0.9481 -0.3179 0.3179 0.9481 -25.2316 278.7591)" class="st10" cx="841.6" cy="216.7" rx="2.2" ry="3.9"/>
		
			<ellipse id="XMLID_127_" transform="matrix(0.9481 -0.3179 0.3179 0.9481 -28.7499 272.1123)" class="st10" cx="819.4" cy="224.1" rx="2.2" ry="3.9"/>
		<path id="XMLID_126_" class="st10" d="M828.9,245.5c0,0,15.3-3,21.6-9.2c0,0-0.9,11.4-9.2,13.2
			C832.9,251.4,828.9,245.5,828.9,245.5z"/>
		<g id="XMLID_372_">
			<path id="XMLID_125_" class="st9" d="M839.1,236.3c-1.6,0.5-3.4,0.7-3.9,0.7l-0.1-1.9c1.9-0.1,4.7-0.7,5.1-1.6
				c0.1-0.3-0.1-0.9-0.8-1.5c-4.1-4.3-9-17.1-9.2-17.6l1.7-0.7c0,0.1,4.9,13,8.8,17c1.2,1.2,1.6,2.4,1.1,3.5
				C841.5,235.2,840.4,235.9,839.1,236.3z"/>
		</g>
		<path id="XMLID_124_" class="st6" d="M816.6,181.9c-37.2,13.8-14.9,48.9-14.9,48.9l5.4,4.9c-2.4-10.1-0.7-15.6-0.7-15.6
			c-2.6-4-2.8-11.2-2.1-14.5c4.7-4,16.3-11.5,37.7-13.8c0.2,0.2,5.8,5.9,6.4,11.5c0,0,8.5,7.8,12.2,17l0.7-8.6
			C861.3,211.6,852.7,168.5,816.6,181.9z"/>
	</g>
</g>
<g id="XMLID_316_">
	<g id="XMLID_358_">
		<g id="XMLID_367_">
			<path id="XMLID_123_" class="st14" d="M812.4,832.9l-16.4,3.8c0,0-25.6-137.3-31.5-151.8c-5.1-12.5-26.7-60.4-33.9-97.2
				c-0.3,0.2-2.6-0.2-5.6-0.8h0c-0.8-0.2-1.6-0.3-2.4-0.5c-0.8-0.2-1.6-0.3-2.4-0.5c-0.6,36.6-8.6,81.8-11,94.5
				c-2.9,15.4-1.4,155.1-1.4,155.1L691,835c-31.9-113.2-15.1-155.7-15.1-155.7S646.6,577.4,657,541.5c3.4-12,7.7-22.8,11.8-32
				c0.3-0.8,0.7-1.5,1-2.2c7.8-17,14.9-27.5,14.9-27.5l34.2,4.3l0.3-0.6l1,0.2v10.7l4.3-0.2l1-0.1h0l14.2-0.8l1.9-0.1l12.4-0.7
				c0,0,7.5,11.9,18.1,30.9c0.4,0.7,0.8,1.5,1.2,2.2c3.8,6.8,7.9,14.5,12.2,22.9c17.2,33.2,11.3,128.6,11.3,128.6
				S821.7,715.7,812.4,832.9z"/>
		</g>
		<g id="XMLID_365_">
			<path id="XMLID_122_" class="st16" d="M695.9,483.8c-0.1,0.2-8.9,21.2-27.2,25.8c0.3-0.8,0.7-1.5,1-2.2
				c16.4-5.1,24.4-24.1,24.4-24.3L695.9,483.8z"/>
		</g>
		<g id="XMLID_363_">
			<path id="XMLID_121_" class="st16" d="M773.3,525.8c-20.4-4.4-30.9-25.8-33.6-32.4c-0.5-1.2-0.7-1.9-0.8-1.9l1.7-0.6
				c0,0,0.3,1,1,2.5c2.9,6.8,12.5,25.5,30.5,30.3C772.5,524.3,772.9,525.1,773.3,525.8z"/>
		</g>
		<g id="XMLID_361_">
			<path id="XMLID_120_" class="st16" d="M724.9,586.9c-0.8-0.2-1.6-0.3-2.4-0.5c-3-5.5-8.4-17.3-12.8-36.9
				c-6.4-28.3,8.1-58.4,8.3-58.7l1.7,0.8c-0.1,0.3-14.4,29.9-8.2,57.5c0.3,1.2,0.5,2.3,0.8,3.4c0.1,0.6,0.3,1.2,0.4,1.8
				C717.3,572.3,722.5,582.7,724.9,586.9z"/>
		</g>
		<g id="XMLID_359_">
			<path id="XMLID_119_" class="st16" d="M711.8,554.4c-0.1,0-0.2,0-0.3,0l0.1-1.8c1,0,2.1-0.5,3-1.5c1.2-1.4,3.8-5.8,1.7-16.5
				c-2.8-14.4,7.9-39.7,8.3-40.7l1.7,0.7c-0.1,0.3-10.9,25.8-8.2,39.7c2.2,11.1-0.4,16.1-2.1,18
				C714.8,553.6,713.3,554.4,711.8,554.4z"/>
		</g>
	</g>
	<path id="XMLID_118_" class="st7" d="M712.2,350.7c0,0,5.4-9.8-2.2-26.7c-7.6-16.9-6.1-63.4,32.1-61.4c0,0,22.6-3.8,34.1,11.1
		c11.4,14.8,20.7,67.1,8.8,105.9C772.9,418.4,696.8,408,712.2,350.7z"/>
	<path id="XMLID_117_" class="st1" d="M754.1,492.7c0,0-35.7,12.6-69.4-12.9c0,0-6.3-128.6,5.6-137.3c5.2-3.8,15.5-0.8,25.4,3.8
		c12.8,5.9,25,14.5,25,14.5s22.2-3.1,39.7-1.2c11.1,1.2,20.3,4.5,20.7,11.8C802.2,390.5,754.1,492.7,754.1,492.7z"/>
	<path id="XMLID_116_" class="st8" d="M781.3,360c-7.5-0.8-8.9,4.9-16.4,7.6c-7.5,2.8-16.5,4.9-19.9,5.2c-3.4,0.3-5.2,4.6-5.2,4.6
		s-1.2-5.7-3.1-6.2c-1.8-0.5-17.7-16.5-21-24.7c12.8,5.9,25,14.5,25,14.5s22.2-3.1,39.7-1.2C781,359.9,781.3,360,781.3,360z"/>
	<g id="XMLID_351_">
		<path id="XMLID_115_" class="st2" d="M683.4,849.2c1-7-1.6-12,0.3-15.4c2.8-5.2,5.8,1.4,5.8,1.4c0.2-7.9,13.6-7.9,14.9-4.3
			c0.4,1,0.8,1.8,1.2,2.7c0.8-1.9,2.2-3.8,4.1-2.7c7.1,4.3-1.7,15.3,4.7,23.3c8.2,10.2,3.2,25.6,3.2,25.6h-39.5
			C673.4,858.2,682.4,856.2,683.4,849.2z"/>
		<path id="XMLID_114_" class="st0" d="M707.8,846.6c0,0-9.3-4.9-21.7,1.6l2.4-4.5c0,0,8.2-5.1,18.1-1.3L707.8,846.6z"/>
		<path id="XMLID_113_" class="st0" d="M709.4,854c0,0-13.3-4.6-25.7,1.9l2.3-4.7c0,0,11.8-5.1,21.7-1.3L709.4,854z"/>
	</g>
	<g id="XMLID_347_">
		<path id="XMLID_112_" class="st2" d="M819.6,849.2c-1-7,1.6-12-0.3-15.4c-2.8-5.2-5.8,1.4-5.8,1.4c-0.2-7.9-13.6-7.9-14.9-4.3
			c-0.4,1-0.8,1.8-1.2,2.7c-0.8-1.9-2.2-3.8-4.1-2.7c-7.1,4.3,1.7,15.3-4.7,23.3c-8.2,10.2-3.2,25.6-3.2,25.6H825
			C829.6,858.2,820.6,856.2,819.6,849.2z"/>
		<path id="XMLID_111_" class="st0" d="M795.2,846.6c0,0,9.3-4.9,21.7,1.6l-2.4-4.5c0,0-8.2-5.1-18.1-1.3L795.2,846.6z"/>
		<path id="XMLID_110_" class="st0" d="M793.6,854c0,0,13.3-4.6,25.7,1.9l-2.3-4.7c0,0-11.8-5.1-21.7-1.3L793.6,854z"/>
	</g>
	<path id="XMLID_109_" class="st8" d="M737.8,318.3c0,0,2.8,34.3-6.7,39.3c0,0,7.1,13,26,5.1c0,0-3.2-17.7,9.3-38.6
		C774.8,310,737.8,318.3,737.8,318.3z"/>
	<g id="XMLID_328_">
		<path id="XMLID_108_" class="st1" d="M772.3,306.5c0,0,7.1-8.3,8.7,0.6c1.9,10.3-7.2,15.2-9.3,12.1
			C769.6,316.1,772.3,306.5,772.3,306.5z"/>
		<path id="XMLID_107_" class="st1" d="M718.5,311.2c0,0-8.3-7.1-8.5,2c-0.3,10.5,9.5,14,11.1,10.5
			C722.6,320.2,718.5,311.2,718.5,311.2z"/>
		<path id="XMLID_106_" class="st1" d="M749.1,346.2c17.1-1.3,25.9-13.2,23.3-46.6c-1.3-17.3-10.9-27.2-30-25.7
			c-19.1,1.5-26.4,12.7-25.1,29.9C720.1,339.7,731.4,347.5,749.1,346.2z"/>
		
			<ellipse id="XMLID_105_" transform="matrix(-0.9953 -9.652585e-02 9.652585e-02 -0.9953 1421.7651 700.066)" class="st9" cx="727.8" cy="315.6" rx="4" ry="3.2"/>
		
			<ellipse id="XMLID_104_" transform="matrix(-0.9901 0.1406 -0.1406 -0.9901 1562.391 515.5182)" class="st9" cx="763" cy="313" rx="4" ry="3.2"/>
		<g id="XMLID_339_">
			<path id="XMLID_103_" class="st7" d="M729.9,297.2c0.3,0.2,0.8,0.1,1-0.2c2.2-2.7,6.3-2.9,6.4-2.9c0.5,0,0.8-0.4,0.8-0.9
				c0-0.5-0.4-0.8-0.9-0.8c-0.2,0-5,0.3-7.6,3.5c-0.3,0.4-0.2,0.9,0.1,1.2C729.8,297.2,729.9,297.2,729.9,297.2z"/>
		</g>
		<g id="XMLID_337_">
			<path id="XMLID_102_" class="st7" d="M754.7,292.7c0.1,0.1,0.3,0.1,0.5,0.1c0,0,4.2-0.4,6.8,1.9c0.4,0.3,0.9,0.3,1.2-0.1
				c0.3-0.4,0.3-0.9-0.1-1.2c-3.1-2.8-7.9-2.3-8.1-2.3c-0.5,0.1-0.8,0.5-0.8,0.9C754.2,292.3,754.4,292.6,754.7,292.7z"/>
		</g>
		
			<ellipse id="XMLID_101_" transform="matrix(-0.9971 7.592610e-02 -7.592610e-02 -0.9971 1490.4436 555.5298)" class="st10" cx="734.7" cy="306.1" rx="2.1" ry="3.8"/>
		
			<ellipse id="XMLID_100_" transform="matrix(-0.9971 7.593472e-02 -7.593472e-02 -0.9971 1537.3925 549.8379)" class="st10" cx="758.2" cy="304.1" rx="2.1" ry="3.8"/>
		<path id="XMLID_99_" class="st10" d="M754.7,325.2c0,0-10.5,2.3-16.2-0.1c0,0,3.7,7.6,9.4,6.5
			C753.7,330.4,754.7,325.2,754.7,325.2z"/>
		<path id="XMLID_98_" class="st10" d="M738.2,304.8c0,0-2-5.1-4-4.6c-2,0.5-3.2,5.1-3.2,5.1l-3.2-1.4l3.1,0.2c0,0,1.2-4.8,3.3-4.9
			C737,298.9,738.2,304.8,738.2,304.8z"/>
		<path id="XMLID_97_" class="st10" d="M754.8,304.1c0,0,1.2-5.3,3.2-5.1c2.1,0.2,4,4.6,4,4.6l2.9-1.8l-3,0.6c0,0-1.9-4.5-4-4.4
			C755.1,298.2,754.8,304.1,754.8,304.1z"/>
		<g id="XMLID_330_">
			<path id="XMLID_96_" class="st9" d="M745.5,317.2c0.4,0.2,0.8,0.3,1.2,0.4l0.3-1.8c-1.5-0.3-1.9-1.2-2-1.9c-0.1-1,0.4-2,1-2.2
				c0.3-0.1,0.7,0.1,1.1,0.6l1.5-1.1c-1.3-1.7-2.7-1.4-3.2-1.2c-1.4,0.5-2.3,2.3-2.2,4.1C743.4,315.4,744.2,316.6,745.5,317.2z"/>
		</g>
		<path id="XMLID_95_" class="st7" d="M748.5,279.3c0,0,6.3-2.1,8.9,7.6c4.6,16.7,7.9,43.8,18.7,57.3c7.9,9.7,12.6,5.8,12.6,5.8
			s2.1-9.6-1.2-19.3c-3.3-9.6,0.9-44.3-11.4-56.9c-12.3-12.7-34.1-4.6-34.1-4.6s-10.5-6.2-20.7,0c-10.2,6.2-13.1,34.1-2.7,46.5
			c0,0-0.5-10.5,4-14.6C727.3,297,729.9,274.2,748.5,279.3z"/>
	</g>
	<g id="XMLID_324_">
		<path id="XMLID_94_" class="st1" d="M668.4,142.2c-3.9,12.6,5.7,18.4-1.4,27c-4.4,5.4-11.1,1-11.1,1c-3.2-6.7-10.9-15.7-14.8-19.5
			c-4-3.9-1.1-3.9-1.1-3.9c-0.4-0.3-0.8-0.6-1.2-0.9c-3-2.2-5.5-3.4-2.7-4.3c3.1-1,11.8,5,11.8,5c-10.3-11.5-14.2-10.3-11.5-11.5
			c3.7-1.6,14.2,7,14.5,7.2c-5-7.9-9.4-10.6-6.6-10.8c2.9-0.3,13.5,12.5,17.4,17.3c0.9,1.1,1.4,1.8,1.4,1.8
			C665.5,139.9,668.4,142.2,668.4,142.2z"/>
		<path id="XMLID_93_" class="st8" d="M661.6,148.7c0.9,1.1,1.4,1.8,1.4,1.8s-3.2,3.2-1.6,8.8C661.4,159.2,657,154.4,661.6,148.7z"
			/>
		<path id="XMLID_92_" class="st8" d="M648.7,153.2c-0.9-0.9-6.3-6-8.9-6.5c-0.4-0.3-0.8-0.6-1.2-0.9
			C640.9,144,647.7,152,648.7,153.2z"/>
	</g>
	<path id="XMLID_91_" class="st1" d="M667,169.2c0,0-1.4,83.4-5.8,100c0,0,15.2,52.4,37.9,71.4c0,0,3.5,14.2-16.1,42.2
		c0,0-38.2-68.3-44.3-107.4l17.2-105.1L667,169.2z"/>
	<path id="XMLID_90_" class="st15" d="M717.2,347.1c1.9,6.9,3,31.2,26.1,43.7c23,12.5,47.7-5.8,54.4-25.7c0,0,2.8-4.2,11.9,6
		c0,0,47.9,23.2,54.1,35.3c6.2,12,2.5,58.2-16.7,58.8c-19.1,0.7-42.3-20.6-48.4-6.6s-41.7,64-115.5,23.8c0,0-9.3-11.6-9.3-22
		s-4.7-78.6-4.7-78.6s-27.2-7.9-20.4-72.1c0,0,18.7,10.4,18.3-23.9c0,0,15.5-7.2,20.6,21.6c3.4,19.3,22.5,33.4,22.5,33.4
		S714.2,336.6,717.2,347.1z"/>
	<path id="XMLID_89_" class="st1" d="M874.5,430.3c16.3-6.8,52.1-36.4,64.9-53.6l-7.7-7.1c0,0-42.2,28.6-58.4,33.7
		c-16.2,5.1-24.8,14.4-22.8,25.9C852.5,440.7,871,431.7,874.5,430.3z"/>
	<g id="XMLID_317_">
		<path id="XMLID_88_" class="st1" d="M952.8,352.6c-7.9,10.6-18.2,6.1-21,17c-1.7,6.7,5.7,9.6,5.7,9.6c7.4-1.3,19.1-0.4,24.5,0.6
			c5.5,0.9,3.8-1.4,3.8-1.4c0.5,0.1,1,0.3,1.4,0.4c3.5,1.1,6,2.4,5.1-0.3c-1-3.1-11-6.7-11-6.7c15.4,1.6,16.7,5.5,16.1,2.6
			c-0.9-4-13.9-7.4-14.3-7.5c9.3-0.6,14.1,1.4,12.6-1c-1.5-2.5-18.1-3.6-24.2-3.9c-1.4-0.1-2.2-0.1-2.2-0.1
			C956.3,353.7,952.8,352.6,952.8,352.6z"/>
		<path id="XMLID_87_" class="st8" d="M951.5,362c-1.4-0.1-2.2-0.1-2.2-0.1s-0.7,4.5-6.2,6.4C943.1,368.3,949.6,369,951.5,362z"/>
		<path id="XMLID_86_" class="st8" d="M955.4,375c1.3,0.2,8.6,1.6,10.5,3.4c0.5,0.1,1,0.3,1.4,0.4C967.4,376,956.9,375.1,955.4,375z
			"/>
	</g>
</g>
<g id="XMLID_271_">
	<path id="XMLID_85_" class="st1" d="M493.7,541.5c10.4-35.9,30.9-62.6,30.9-62.6l31,5.1l0.3-0.6l2.5,0.5l0.4,0l0,0.1l32,6.4
		c0,0,13.8,25.6,22.9,61.9c9.2,36.3-18.2,127.8-18.2,127.8s15.4,43-20.3,155h-16.8c0,0,6.3-139.5,3.8-155
		c-2.1-13.3-4.8-62.2-3.4-99.7c-1.9,0.4-4,0.6-6.1,0.4c0,0,0,0,0,0c0.1,37.4-4.2,86.1-6.8,99.4c-3,15.4-1.4,155.1-1.4,155.1
		l-16.8-0.6c-31.9-113.1-15.1-155.7-15.1-155.7S483.4,577.4,493.7,541.5z"/>
	<path id="XMLID_84_" class="st4" d="M637.9,371.5c-1.1-19-60.4-10.6-60.4-10.6s-38.5-27-50.4-18.3c-4.2,3.1-6.2,21.2-6.9,43.3
		c-4.5,7.9-8.3,19.9-0.4,30.7c0.1,32.5,1.6,63.3,1.6,63.3c33.7,25.4,69.4,12.9,69.4,12.9s14.2-30.2,27-60.8
		c8.2-6.7,10-16.3,9.7-24.2C633.8,391.3,638.2,377.4,637.9,371.5z"/>
	<path id="XMLID_83_" class="st6" d="M630.4,274.7c-17.2-29.4-60.8-25.8-75.6-6.6c-18,23.2-8.4,77.2-8.4,77.2s41.5-34.6,66.3,12.7
		C612.7,357.9,649.7,307.5,630.4,274.7z"/>
	<g id="XMLID_309_">
		<path id="XMLID_82_" class="st4" d="M520.2,849.2c1-7-1.6-12,0.3-15.4c2.8-5.2,5.8,1.4,5.8,1.4c0.2-7.9,13.6-7.9,14.9-4.3
			c0.4,1,0.8,1.8,1.2,2.7c0.8-1.9,2.2-3.8,4.1-2.7c7.1,4.3-1.7,15.3,4.7,23.3c8.2,10.2,3.2,25.6,3.2,25.6h-39.5
			C510.2,858.2,519.1,856.2,520.2,849.2z"/>
		<path id="XMLID_81_" class="st11" d="M544.5,846.6c0,0-9.3-4.9-21.7,1.6l2.4-4.5c0,0,8.2-5.1,18.1-1.3L544.5,846.6z"/>
		<path id="XMLID_80_" class="st11" d="M546.2,854c0,0-13.3-4.6-25.7,1.9l2.3-4.7c0,0,11.8-5.1,21.7-1.3L546.2,854z"/>
	</g>
	<g id="XMLID_305_">
		<path id="XMLID_79_" class="st4" d="M583.3,849.2c-1-7,1.6-12-0.3-15.4c-2.8-5.2-5.8,1.4-5.8,1.4c-0.2-7.9-13.6-7.9-14.9-4.3
			c-0.4,1-0.8,1.8-1.2,2.7c-0.8-1.9-2.2-3.8-4.1-2.7c-7.1,4.3,1.7,15.3-4.7,23.3c-8.2,10.2-3.2,25.6-3.2,25.6h39.5
			C593.2,858.2,584.3,856.2,583.3,849.2z"/>
		<path id="XMLID_78_" class="st11" d="M558.9,846.6c0,0,9.3-4.9,21.7,1.6l-2.4-4.5c0,0-8.2-5.1-18.1-1.3L558.9,846.6z"/>
		<path id="XMLID_77_" class="st11" d="M557.3,854c0,0,13.3-4.6,25.7,1.9l-2.3-4.7c0,0-11.8-5.1-21.7-1.3L557.3,854z"/>
	</g>
	<path id="XMLID_76_" class="st8" d="M574.6,318.3c0,0,1.7,20.8-6.7,39.3c0,0,7.1,13,26,5.1c0,0-3.2-17.7,9.3-38.6
		C611.6,310,574.6,318.3,574.6,318.3z"/>
	<g id="XMLID_286_">
		<path id="XMLID_75_" class="st1" d="M616.5,308.6c0,0,9-6.2,8.3,2.9c-0.8,10.5-10.9,12.8-12.1,9.2
			C611.4,317.1,616.5,308.6,616.5,308.6z"/>
		<path id="XMLID_74_" class="st1" d="M563.3,299.3c0,0-6.2-9-8.8-0.3c-3,10.1,5.6,15.9,8,13C564.9,309,563.3,299.3,563.3,299.3z"/>
		<path id="XMLID_73_" class="st1" d="M583.8,341c16.8,3.1,28.4-6.1,34.5-39.1c3.2-17-3.5-29.1-22.4-32.6
			c-18.9-3.5-28.7,5.4-31.9,22.4C557.4,327.2,566.4,337.7,583.8,341z"/>
		
			<ellipse id="XMLID_72_" transform="matrix(-0.937 -0.3494 0.3494 -0.937 999.3785 792.1667)" class="st9" cx="571.1" cy="306" rx="4" ry="3.2"/>
		
			<ellipse id="XMLID_71_" transform="matrix(-0.9929 -0.1188 0.1188 -0.9929 1170.1785 694.611)" class="st9" cx="605.8" cy="312.4" rx="4" ry="3.2"/>
		<g id="XMLID_297_">
			<path id="XMLID_70_" class="st6" d="M577.9,288.7c0.3,0.2,0.7,0.3,1.1,0c2.8-2,6.9-1.1,6.9-1.1c0.5,0.1,0.9-0.2,1-0.7
				c0.1-0.5-0.2-0.9-0.7-1c-0.2,0-4.9-1-8.3,1.4c-0.4,0.3-0.5,0.8-0.2,1.2C577.8,288.6,577.9,288.7,577.9,288.7z"/>
		</g>
		<g id="XMLID_295_">
			<path id="XMLID_69_" class="st6" d="M603,290.7c0.1,0.1,0.3,0.2,0.4,0.2c0,0,4.2,0.7,6,3.5c0.3,0.4,0.8,0.5,1.2,0.2
				c0.4-0.3,0.5-0.8,0.2-1.2c-2.3-3.5-7-4.3-7.2-4.3c-0.5-0.1-0.9,0.2-1,0.7C602.6,290.2,602.8,290.5,603,290.7z"/>
		</g>
		
			<ellipse id="XMLID_68_" transform="matrix(-0.9831 -0.1832 0.1832 -0.9831 1095.9011 698.2248)" class="st10" cx="580.2" cy="298.5" rx="2.1" ry="3.8"/>
		
			<ellipse id="XMLID_67_" transform="matrix(-0.9831 -0.1832 0.1832 -0.9831 1140.5818 711.5898)" class="st10" cx="603.2" cy="303.1" rx="2.1" ry="3.8"/>
		<path id="XMLID_66_" class="st10" d="M594.7,322.2c0,0-10.8-0.5-15.6-4.3c0,0,1.6,8.3,7.5,8.7
			C592.4,326.9,594.7,322.2,594.7,322.2z"/>
		<path id="XMLID_65_" class="st10" d="M584,298.1c0,0-0.6-5.4-2.7-5.4c-2.1,0-4.4,4.1-4.4,4.1l-2.7-2.1l2.9,0.9
			c0,0,2.4-4.3,4.4-3.9C584.3,292.2,584,298.1,584,298.1z"/>
		<path id="XMLID_64_" class="st10" d="M600.2,301.8c0,0,2.5-4.9,4.4-4.1c2,0.7,2.7,5.4,2.7,5.4l3.3-1l-3.1-0.2c0,0-0.7-4.9-2.7-5.3
			C602,296.1,600.2,301.8,600.2,301.8z"/>
		<g id="XMLID_288_">
			<path id="XMLID_63_" class="st9" d="M587.8,312c0.3,0.3,0.7,0.5,1.1,0.7l0.8-1.7c-1.4-0.7-1.6-1.7-1.5-2.4c0.2-1,0.9-1.8,1.5-1.9
				c0.3,0,0.6,0.2,0.9,0.8l1.7-0.7c-0.8-2-2.2-2-2.8-2c-1.5,0.2-2.8,1.7-3.1,3.4C586.2,309.8,586.7,311.1,587.8,312z"/>
		</g>
		<path id="XMLID_62_" class="st6" d="M562.2,305c0,0-7-20.4,5.7-37.1s47-4.3,53.2,8.6c6.3,12.9-6,38.9-6,38.9s9.5-34.5-9.6-40.3
			c0,0-2.4,8.6-17.2,14.8c-14.6,6-23.3,5.1-23.3,5.1L562.2,305z"/>
	</g>
	<path id="XMLID_61_" class="st8" d="M622.5,360.5c0,0,21.6,0.4,74.6,53.6c7.4,7.4-1,30.5-23,16.3c-24.2-15.7-40.2-32-45.3-26
		C628.8,404.4,616.2,373.9,622.5,360.5z"/>
	<path id="XMLID_60_" class="st1" d="M700.3,411c-0.2-17.7-14-62-25.1-80.4l-9.5,4.4c0,0,10.6,49.9,9.2,66.8
		c-1.4,16.9,4,28.4,15.4,30.9C701.6,435.3,700.3,414.7,700.3,411z"/>
	<g id="XMLID_280_">
		<path id="XMLID_59_" class="st1" d="M657.9,309.2c6.8,11.4-1.2,19.2,7.8,25.9c5.6,4.2,11.1-1.7,11.1-1.7
			c1.5-7.3,6.9-17.8,9.8-22.5c2.9-4.7,0.2-4.1,0.2-4.1c0.3-0.4,0.6-0.8,0.9-1.2c2.3-2.9,4.5-4.6,1.6-4.8c-3.3-0.2-10.3,7.6-10.3,7.6
			c7.3-13.6,11.4-13.4,8.5-13.9c-4-0.7-12.1,10.1-12.3,10.5c3-8.9,6.6-12.5,3.8-12.1c-2.9,0.4-10.2,15.4-12.8,20.9
			c-0.6,1.2-0.9,2-0.9,2C660.2,306.3,657.9,309.2,657.9,309.2z"/>
		<path id="XMLID_58_" class="st8" d="M666.1,313.9c-0.6,1.2-0.9,2-0.9,2s3.9,2.3,3.6,8.2C668.7,324.1,671.9,318.3,666.1,313.9z"/>
		<path id="XMLID_57_" class="st8" d="M679.6,315.3c0.7-1.1,4.7-7.4,7.1-8.4c0.3-0.4,0.6-0.8,0.9-1.2
			C685,304.5,680.3,313.8,679.6,315.3z"/>
	</g>
	<path id="XMLID_56_" class="st8" d="M534.4,340.9c0,0-21.4-4.5-84.1,36.7c-8.7,5.7-5.2,30.1,19.2,20.6
		c26.9-10.4,47.2-23.2,50.9-16.3C520.3,381.9,537.8,355.3,534.4,340.9z"/>
	<path id="XMLID_55_" class="st1" d="M447.8,374c3.8-17.3,26.5-57.8,41-73.5l8.4,6.3c0,0-20.6,46.7-22.7,63.5
		c-2.1,16.9-9.7,27-21.4,27.1C441.4,397.5,447,377.6,447.8,374z"/>
	<g id="XMLID_274_">
		<path id="XMLID_54_" class="st1" d="M510.1,283c-9,9.7-2.7,19-12.9,23.8c-6.3,2.9-10.5-3.9-10.5-3.9c0-7.5-3.1-18.8-5-24
			c-1.9-5.2,0.7-4,0.7-4c-0.2-0.5-0.4-0.9-0.7-1.3c-1.7-3.3-3.5-5.5-0.6-5c3.3,0.5,8.5,9.6,8.5,9.6c-4.4-14.8-8.4-15.5-5.4-15.4
			c4.1,0.1,9.8,12.4,9.9,12.8c-1.1-9.3-3.9-13.6-1.3-12.6c2.7,1,6.8,17.1,8.2,23.1c0.3,1.3,0.5,2.2,0.5,2.2
			C508.4,279.7,510.1,283,510.1,283z"/>
		<path id="XMLID_53_" class="st8" d="M501.1,285.9c0.3,1.3,0.5,2.2,0.5,2.2s-4.3,1.5-5.2,7.3C496.4,295.3,494.5,289,501.1,285.9z"
			/>
		<path id="XMLID_52_" class="st8" d="M487.6,284.5c-0.5-1.2-3.1-8.2-5.2-9.7c-0.2-0.5-0.4-0.9-0.7-1.3
			C484.5,272.8,487.2,282.9,487.6,284.5z"/>
	</g>
	<path id="XMLID_51_" class="st6" d="M521.1,473.5c0,0-72.4,99.1-49.6,204c0,0,24.5,22.8,43.7,14.8c19.2-7.9,39.1,20.7,56.2,11.6
		c17.2-9.1,32.3-15.8,44.2-10.9c11.9,4.9,31.9-15.5,31.9-15.5s-8.9-116-52.8-192.7C594.7,484.8,558.9,501.2,521.1,473.5z"/>
	<path id="XMLID_50_" class="st17" d="M551.1,854.2c0,0,7.9,9.9,4.7,25.6h-6.7C549.1,879.9,547.6,865.8,551.1,854.2z"/>
</g>
<g id="XMLID_216_">
	<path id="XMLID_49_" class="st1" d="M316.2,584.9c0,0,13.2,41.6,45.5,97.4c0,0-5.5,59.1,86.1,168.6l12.6-6.9
		c0,0-47.1-110.2-54.8-142.8c-7.7-32.7-4.4-76.2-29-144.3L316.2,584.9z"/>
	<path id="XMLID_48_" class="st18" d="M372.1,501.1c0,0-43.3-17.6-43.3-17.6c-7.5,24-27,41.4-25.4,79.1
		c0.8,18.7,12.9,37.8,12.9,37.8c51.2-1.8,68.5-23.3,68.5-23.3l-7.8-36.1C377,541.1,371.8,516.8,372.1,501.1z"/>
	<path id="XMLID_47_" class="st1" d="M269.4,557.1c0,0-1.4,43.6,10.4,107c0,0-24.9,53.9,24.8,187.7l14.2-2.3c0,0-7.6-119.6-4-152.9
		c3.7-33.3,22.8-62.7,20.8-145.7L269.4,557.1z"/>
	<path id="XMLID_46_" class="st7" d="M372.1,501.1l-17.1,29.1l-4.2,7l-8.9,15l-5.7,40.2l-0.3,1.8l-0.1,0.9
		c-44-5.1-67.4,8.6-67.4,8.6L268,600l-0.1-1.2c-0.1-0.2-0.1-0.4-0.2-0.7c-4.1-12-9.8-44.4-3-66.4c11.1-36.1,31.1-32.7,46.2-52.8
		C311,479,372.1,501.1,372.1,501.1z"/>
	<path id="XMLID_45_" class="st3" d="M295.9,839.3c0,0,5.6,12.5,3.9,20.9c-1.1,5.1-6.5,11.6-2.1,19.7h34.2c0,0,4-9.1-4.1-17.7
		c-4.4-4.7-7.7-26.6-7.7-26.6c-3.8,0.6-2.8,3.7-2.8,3.7s0.1-10.3-8.5-8.9c-10.4,1.7-7.9,10.8-7.9,10.8S299.6,837.8,295.9,839.3z"/>
	<path id="XMLID_44_" class="st3" d="M501.3,879.9h-57.5c0,0-1.6-12.2,0.9-16.3c3.7-5.9-9-18.9-9-18.9s7.7-9.6,14.5-4.1
		c0,0-0.6-12,7.9-11.9c0,0,7.9,20.3,17,27.6c0.2,0.2,0.4,0.3,0.6,0.5c6.8,4.9,19.1,6.2,23.9,12.9C501.5,872,502.2,875.3,501.3,879.9
		z"/>
	<g id="XMLID_262_">
		<path id="XMLID_43_" class="st18" d="M338.6,593.2l-0.5,1.7c-0.7-0.2-1.4-0.4-2.1-0.6c-36.1-10-61,1.8-67.9,5.7l-0.1-1.2
			c-0.1-0.2-0.1-0.4-0.2-0.7c3.2-1.8,9.3-4.7,17.8-6.8c-0.4-3.4-2.9-26.6,0-52.3c3.1-28,30.5-44.9,30.8-45l0.9,1.6
			c-0.2,0.1-19.6,12.1-27.2,32.4c25.4-0.3,35.5-32.1,35.6-32.4l1.8,0.5c-0.1,0.3-10.7,33.7-37.7,33.7h-0.3c-1,3-1.7,6.1-2.1,9.4
			c-2.8,25-0.5,47.7-0.1,51.7c12.2-2.8,28.9-3.9,49,1.6C337,592.7,337.8,592.9,338.6,593.2z"/>
		<path id="XMLID_42_" class="st18" d="M357.2,509.4c0,0.2-2.5,25.2-14,44l1.6,1c11.7-19.2,14.2-44.5,14.3-44.8L357.2,509.4z"/>
	</g>
	<path id="XMLID_41_" class="st3" d="M435.8,498.2c0,0-4.3,20.1-8.8,21.6c-4.6,1.5-0.6-10.3-0.6-10.3s-31.6-12.7-44.6-13.7
		C368.9,494.8,387.1,470.2,435.8,498.2z"/>
	<path id="XMLID_40_" class="st3" d="M430.3,501.8c0,0-33.3-15.2-56.4-14c-23.1,1.2,32-75.5,45.7-67.6S436.4,492.1,430.3,501.8z"/>
	<path id="XMLID_39_" class="st3" d="M347.8,354.7c0,0,3.3-8.4,19.8-9.9c16.5-1.5,31.1,15.6,27.9,25.8
		C392.3,380.7,347.8,354.7,347.8,354.7z"/>
	<path id="XMLID_38_" class="st4" d="M374,282.1c0,0-1.1-21.3-21.1-24.7s-35.8,1.5-28.8,30.1c7,28.6,2.4,40-10.7,41.3
		c-13.1,1.3-12.2-14-12.2-14s-2.7,14.1,11.6,19.3c0,0-15.1,1.2-9.7,10.7c5.4,9.4,22.1,7.9,28.7,0c0,0,0.5,6.4,8.7,4.1
		c0,0-3.3-1.1-3-5.3c0.3-4.3,22.9,2.9,30-23.7c7.1-26.7-7.1-31.1-7.1-31.1L374,282.1z"/>
	<path id="XMLID_37_" class="st1" d="M411.9,366.6c-12.1-0.6-12.6,11.5-6.4,23.3c6.2,11.8,65.4,65,74.5,55
		c3.5-3.9-6.6-21.6-6.6-21.6s-16.9-14.8-38.8-39.6C424.5,372.3,418.2,366.9,411.9,366.6z"/>
	<path id="XMLID_36_" class="st1" d="M488,425.6c3.3-17.4-1.5-63.6-8.8-83.7l-10.2,2.5c0,0,0.5,51-4.2,67.3
		c-4.7,16.3-1.7,28.6,9,33.3C484.6,449.7,487.3,429.3,488,425.6z"/>
	<g id="XMLID_252_">
		<path id="XMLID_35_" class="st1" d="M457.3,330.8c11,7.3,7.1,17.9,18.1,20c2.3,0.5,4.1-0.1,5.4-1c2.6-1.8,3.8-5,3.3-8.1
			c-1.1-7.2-0.8-16.8-0.2-21.6c0.6-5.5-1.6-3.8-1.6-3.8c0.1-0.5,0.2-1,0.3-1.4c0.9-3.6,2.1-6.1-0.6-5c-3.1,1.2-6,11.3-6,11.3
			c0.8-15.5,4.5-17,1.7-16.2c-3.9,1.1-6.6,14.3-6.7,14.7c-1.1-9.3,0.6-14.1-1.7-12.5c-2.4,1.6-2.6,18.2-2.6,24.4c0,1.4,0,2.2,0,2.2
			C458.1,327.1,457.3,330.8,457.3,330.8z"/>
		<path id="XMLID_34_" class="st8" d="M466.7,331.5c0,1.4,0,2.2,0,2.2s4.5,0.5,6.7,5.8C473.5,339.5,473.8,333,466.7,331.5z"/>
		<path id="XMLID_33_" class="st8" d="M479.5,326.9c0.2-1.3,1.1-8.7,2.8-10.6c0.1-0.5,0.2-1,0.3-1.4
			C479.8,314.9,479.5,325.3,479.5,326.9z"/>
	</g>
	<path id="XMLID_32_" class="st3" d="M394.1,365.9c0,0,16.4-6.8,36.5,5.2c20.1,12,32.1,31.1,32.1,31.1s0.2-35.8,6.3-41.7
		c0,0,7.5,9,16.8,10.7c0,0,23.9,49.6,8.7,80.4s-60.3,0-60.3,0L394.1,365.9z"/>
	<path id="XMLID_31_" class="st2" d="M310.9,479c0,0,12-31.6,5.9-49.7c-10.5-30.8-4.8-56.9,6.3-64.6c17.9-12.4,55.2,1.8,55.2,1.8
		s36.4-3.9,40.1,7.2s12.4,55.8-4.9,79.7c-17.3,23.9-41.4,60.8-41.4,60.8S320.6,509.5,310.9,479z"/>
	<path id="XMLID_30_" class="st3" d="M331.8,498.2c0,0-5,17.1-11.4,16c-6.4-1.1-34-15.9-34.1-18.4c0-2.5,3.9-8,3.9-8
		s-1.5-13.1,1.8-14.3S331.8,498.2,331.8,498.2z"/>
	<path id="XMLID_29_" class="st15" d="M390.3,360.5c0,0,37.9,65.9,36.1,149c0,0,17.2-4.6,20.5-35.6c3.2-31-7.9-90.5-23-106.1
		C423.9,367.7,413,356.4,390.3,360.5z"/>
	<path id="XMLID_28_" class="st15" d="M358.2,357.7c0,0,28.3,101.2-26.4,140.4c0,0-22.9-1.3-39.4-19.2
		c-16.4-17.9,5.8-114.2,5.8-114.2S327.5,345.4,358.2,357.7z"/>
	<path id="XMLID_27_" class="st3" d="M364,389.4c0,0-0.1-30.4-3.6-38.4c-3.4-8-12.7,3.7-12.7,3.7S350.3,368.8,364,389.4z"/>
	<path id="XMLID_26_" class="st3" d="M402.5,386.5c0,0,3.5-30-6.9-35.2c-10.4-5.3-10.5,13.4-10.5,13.4S394.2,363.8,402.5,386.5z"/>
	<path id="XMLID_25_" class="st8" d="M372.7,325.1c0,0,2.4,20.7-5.2,39.5c0,0,10.9,16.1,21.3,5.5c0,0,1-18.9,12.7-40.4
		C409.4,315.3,372.7,325.1,372.7,325.1z"/>
	<g id="XMLID_225_">
		<path id="XMLID_24_" class="st1" d="M356,325.8c0,0-9.2-5.8-8.2,3.2c1.2,10.4,11.4,12.4,12.4,8.8C361.4,334.1,356,325.8,356,325.8
			z"/>
		<path id="XMLID_23_" class="st1" d="M408.9,314.5c0,0,5.8-9.2,8.7-0.6c3.4,9.9-5,16.1-7.5,13.3
			C407.6,324.3,408.9,314.5,408.9,314.5z"/>
		<path id="XMLID_22_" class="st1" d="M389.8,356.9c-16.7,3.7-28.6-5.1-35.9-37.8c-3.8-16.9,2.5-29.2,21.2-33.4
			c18.7-4.2,28.9,4.4,32.7,21.3C415.7,342.2,407.1,353.1,389.8,356.9z"/>
		
			<ellipse id="XMLID_21_" transform="matrix(0.9238 -0.3829 0.3829 0.9238 -92.5205 178.1452)" class="st9" cx="401.3" cy="321.5" rx="4" ry="3.2"/>
		
			<ellipse id="XMLID_20_" transform="matrix(0.988 -0.1546 0.1546 0.988 -46.4703 60.6511)" class="st9" cx="366.8" cy="329.2" rx="4" ry="3.2"/>
		<g id="XMLID_237_">
			<path id="XMLID_19_" class="st4" d="M393.3,304.7c-0.2,0-0.3,0-0.5-0.1c-2.9-1.9-6.9-0.9-6.9-0.9c-0.5,0.1-0.9-0.2-1-0.6
				c-0.1-0.5,0.2-0.9,0.6-1c0.2,0,4.8-1.2,8.3,1.1c0.4,0.3,0.5,0.8,0.2,1.2C393.8,304.6,393.5,304.7,393.3,304.7z"/>
		</g>
		<g id="XMLID_235_">
			<path id="XMLID_18_" class="st4" d="M361.8,311.8c-0.1,0-0.3,0-0.4-0.1c-0.4-0.2-0.5-0.8-0.3-1.2c2.2-3.6,6.9-4.5,7.1-4.6
				c0.5-0.1,0.9,0.2,1,0.7c0.1,0.5-0.2,0.9-0.7,1c0,0-4.1,0.8-5.9,3.8C362.4,311.6,362.1,311.8,361.8,311.8z"/>
		</g>
		
			<ellipse id="XMLID_17_" transform="matrix(0.9758 -0.2185 0.2185 0.9758 -59.2125 93.2197)" class="st10" cx="391.9" cy="314.4" rx="2.1" ry="3.8"/>
		
			<ellipse id="XMLID_16_" transform="matrix(0.9758 -0.2185 0.2185 0.9758 -60.9072 88.273)" class="st10" cx="368.7" cy="319.6" rx="2.1" ry="3.8"/>
		<path id="XMLID_15_" class="st10" d="M378.9,338c0,0,8.9,0.2,16-4.8c0,0,1.8,12.5-6.7,13.6C382.4,347.6,378.9,338,378.9,338z"/>
		<path id="XMLID_14_" class="st10" d="M388.2,314.1c0,0,0.4-5.5,2.5-5.5c2.1-0.1,4.6,4,4.6,4l2.6-2.2l-2.9,1.1c0,0-2.6-4.2-4.6-3.8
			C387.6,308.2,388.2,314.1,388.2,314.1z"/>
		<path id="XMLID_13_" class="st10" d="M372.1,318.4c0,0-2.7-4.8-4.6-4c-1.9,0.8-2.5,5.5-2.5,5.5l-3.3-0.9l3.1-0.3
			c0,0,0.5-4.9,2.5-5.4C370.1,312.8,372.1,318.4,372.1,318.4z"/>
		<g id="XMLID_228_">
			<path id="XMLID_12_" class="st9" d="M383.7,328.9l-0.9-1.6c1.4-0.7,1.5-1.7,1.4-2.4c-0.2-1-1-1.8-1.6-1.8c-0.3,0-0.6,0.3-0.8,0.9
				l-1.7-0.6c0.7-2,2.1-2.1,2.7-2.1c1.5,0.1,2.9,1.6,3.3,3.3C386.4,326.2,385.5,327.9,383.7,328.9z"/>
		</g>
		<path id="XMLID_11_" class="st10" d="M357.3,331.7c0,0-2.2-7.9-2.9-17.2c-0.9-12,6.4-23.2,17.9-26.7c3.8-1.2,8.3-1.8,13.3-1.4
			c7.5,0.6,14,5.5,17.1,12.4c2.5,5.6,5.5,13.4,7.4,22.4c0,0,3-9.8,0.2-24.8c-2.8-15-15-27.5-43.6-21.3
			C342.4,280.4,331.8,309.9,357.3,331.7z"/>
		<path id="XMLID_10_" class="st10" d="M393,282.7c0,0-3.1,23.2-34.8,26.2c0,0,19.2-6.8,19.2-20.2c0,0-7.6,17.3-25.9,15.3
			C351.5,303.9,349.8,276.1,393,282.7z"/>
	</g>
	<path id="XMLID_9_" class="st1" d="M296.6,372.2c15.4,4.6,25.8,29.5,22.6,32.4c-3.2,2.8-76,16.9-76,16.9l44.3,63.9l-7.5,10.9
		c0,0-69.1-61.1-68.7-82C211.7,393.3,296.6,372.2,296.6,372.2z"/>
	<path id="XMLID_8_" class="st1" d="M287.7,483.5c0,0,9.6,1.1,15.7,2.6c6.1,1.5,14.1,3,14.4,4.3c0.3,1.3-13.4,0-13.4,0
		s11.1,4.6,11.4,6.3c0.3,1.8-14.1-1.3-14.1-1.3s9.1,5.6,8.6,7.1c-0.5,1.5-11.7-2.3-11.7-2.3s2.1,5.3,4.2,7.8c0,0-2.2,1.2-6.6-3.7
		c-4.4-4.9-11.4-3.3-17-7.7C273.6,492.3,282.7,482.8,287.7,483.5z"/>
	<path id="XMLID_7_" class="st3" d="M298.3,364.7c0,0,27.1,3.1,28.3,43c1.2,39.9-59.3,27.1-59.3,27.1s14.8,17,10.2,35.9
		c0,0-16.5-0.1-15.9,8.1c0,0-25.4,1.6-50.2-32.8C186.5,411.7,221.4,373.3,298.3,364.7z"/>
	
		<ellipse id="XMLID_6_" transform="matrix(0.9566 -0.2912 0.2912 0.9566 -99.3179 142.5534)" class="st3" cx="429.2" cy="404.9" rx="6.6" ry="11.1"/>
	
		<ellipse id="XMLID_5_" transform="matrix(0.999 4.458229e-02 -4.458229e-02 0.999 18.6004 -15.0967)" class="st3" cx="347.8" cy="409.5" rx="10.1" ry="12.1"/>
	
		<ellipse id="XMLID_4_" transform="matrix(0.2185 0.9758 -0.9758 0.2185 581.7148 41.409)" class="st15" cx="265" cy="383.9" rx="10.1" ry="12.1"/>
	<path id="XMLID_3_" class="st15" d="M299,867.3c0,0,9.3-12.1,28.4-2.4c0,0,0.8,8.5-8.1,6.9C310.3,870.1,305.1,876.6,299,867.3z"/>
	<path id="XMLID_2_" class="st15" d="M499.7,869.5c-12.2,5.9-37.5-8.1-37.5-8.1c4,0.7,10-2.5,13.6-4.8
		C482.6,861.6,494.8,862.8,499.7,869.5z"/>
</g>
</svg>
