<?xml version="1.0" encoding="utf-8"?>
<!-- Generator: Adobe Illustrator 19.0.0, SVG Export Plug-In . SVG Version: 6.00 Build 0)  -->
<svg version="1.1" id="Layer_1" xmlns="http://www.w3.org/2000/svg" xmlns:xlink="http://www.w3.org/1999/xlink" x="0px" y="0px"
	 viewBox="0 0 100 100" style="enable-background:new 0 0 100 100;" xml:space="preserve">
<style type="text/css">
	.st0{fill:#FFFFFF;}
	.st1{fill:url(#XMLID_2_);}
	.st2{fill:url(#XMLID_3_);}
	.st3{fill:url(#XMLID_4_);}
	.st4{fill:url(#XMLID_5_);}
	.st5{fill:url(#XMLID_6_);}
	.st6{fill:url(#XMLID_7_);}
	.st7{fill:url(#XMLID_8_);}
	.st8{fill:url(#XMLID_9_);}
	.st9{fill:url(#XMLID_10_);}
	.st10{fill:url(#XMLID_11_);}
	.st11{fill:url(#XMLID_12_);}
	.st12{fill:url(#XMLID_13_);}
	.st13{fill:url(#XMLID_14_);}
	.st14{fill:url(#XMLID_15_);}
	.st15{fill:url(#XMLID_16_);}
	.st16{fill:url(#XMLID_17_);}
	.st17{fill:url(#XMLID_18_);}
	.st18{fill:url(#XMLID_19_);}
	.st19{fill:url(#XMLID_20_);}
	.st20{fill:url(#XMLID_21_);}
	.st21{fill:url(#XMLID_23_);}
	.st22{fill:url(#XMLID_24_);}
	.st23{fill:url(#XMLID_25_);}
	.st24{fill:url(#XMLID_27_);}
</style>
<g id="XMLID_92_">
	<g id="XMLID_115_">
		<path id="XMLID_90_" class="st0" d="M36,81.5c0,0,10.9,1.8,13.2,1.2c2.5-0.7,14.1,1.7,19.5-0.5c4.8-2.3,5.8-4.3,9.5-8.2
			c2.7-2.9,5.8-6.1,8.2-10c1.4-2.2,2.3-4.7,3.3-7.4c0.7-2,1.1-4,1.4-6.2c1.9-12.8-3.3-29-8.7-37.9c0.6,3.4-0.2,6.8-2.7,9.7
			c-2.2,2.5-5.9,4.7-9.2,6.8c-4.3,2-8.8,4.5-12.1,6c0,0-2.6,1.2-5.5,2.9c-4.7,2.8-11.3,7.6-13.9,14.6C37,57.5,38.5,66.9,38,72.2
			C37.4,78.6,36.6,80.8,36,81.5z"/>
		
			<linearGradient id="XMLID_2_" gradientUnits="userSpaceOnUse" x1="-98.4194" y1="42.659" x2="-23.6131" y2="-6.8452" gradientTransform="matrix(0.9234 -0.3838 0.3838 0.9234 108.2013 12.6402)">
			<stop  offset="0" style="stop-color:#006838"/>
			<stop  offset="0.1349" style="stop-color:#318333"/>
			<stop  offset="0.2923" style="stop-color:#639E2E"/>
			<stop  offset="0.4482" style="stop-color:#8CB52A"/>
			<stop  offset="0.5994" style="stop-color:#ACC727"/>
			<stop  offset="0.7445" style="stop-color:#C3D425"/>
			<stop  offset="0.881" style="stop-color:#D1DB23"/>
			<stop  offset="1" style="stop-color:#D6DE23"/>
		</linearGradient>
		<path id="XMLID_89_" class="st1" d="M64.5,52.1c0.3,0.8,0.6,1.6,0.9,2.4c0.3,0.8,0.5,1.5,0.7,2.1c0.3,0.9,0.5,1.6,0.7,2.3
			c0.8-0.9,1.6-1.8,2.4-2.7c1.3-1.5,2.5-2.9,3.6-4.5c0-0.1,0-0.2,0-0.3c0-0.7-0.1-1.7-0.2-2.9c-0.1-0.6-0.1-1.2-0.2-1.9
			c-0.1-0.7-0.2-1.4-0.3-2.1c-0.1-0.7-0.2-1.5-0.3-2.3c-0.1-0.4-0.1-0.8-0.2-1.2c0-0.2-0.1-0.4-0.1-0.6l-0.1-0.6
			c-0.1-0.8-0.3-1.6-0.4-2.3c-0.1-0.4-0.2-0.8-0.2-1.1c-0.1-0.4-0.2-0.7-0.3-1.1c-0.1-0.4-0.2-0.7-0.3-1.1c-0.1-0.3-0.2-0.7-0.3-1
			c-0.1-0.3-0.2-0.6-0.3-0.9c-0.1-0.3-0.2-0.6-0.3-0.9c-0.1-0.3-0.2-0.5-0.3-0.8c-0.1-0.2-0.2-0.5-0.3-0.7c-0.1-0.1-0.1-0.2-0.2-0.3
			c-3.9,2-8.2,4-12.3,6.2c0.1,0.2,0.3,0.4,0.4,0.6c0.1,0.1,0.2,0.2,0.3,0.4c0.1,0.1,0.2,0.3,0.3,0.4c0.2,0.3,0.4,0.5,0.5,0.8
			c0.7,1.2,1.6,2.6,2.4,4.1c0.2,0.4,0.4,0.8,0.6,1.2c0.1,0.2,0.2,0.4,0.3,0.6c0.1,0.2,0.2,0.4,0.3,0.6c0.1,0.2,0.2,0.4,0.3,0.6
			c0.1,0.2,0.2,0.4,0.3,0.6c0.2,0.4,0.4,0.8,0.6,1.3c0.2,0.4,0.4,0.9,0.5,1.3c0.2,0.4,0.3,0.9,0.5,1.3
			C63.9,50.5,64.2,51.3,64.5,52.1z"/>
		
			<linearGradient id="XMLID_3_" gradientUnits="userSpaceOnUse" x1="-100.4989" y1="39.5169" x2="-25.6929" y2="-9.987" gradientTransform="matrix(0.9234 -0.3838 0.3838 0.9234 108.2013 12.6402)">
			<stop  offset="0" style="stop-color:#006838"/>
			<stop  offset="0.1349" style="stop-color:#318333"/>
			<stop  offset="0.2923" style="stop-color:#639E2E"/>
			<stop  offset="0.4482" style="stop-color:#8CB52A"/>
			<stop  offset="0.5994" style="stop-color:#ACC727"/>
			<stop  offset="0.7445" style="stop-color:#C3D425"/>
			<stop  offset="0.881" style="stop-color:#D1DB23"/>
			<stop  offset="1" style="stop-color:#D6DE23"/>
		</linearGradient>
		<path id="XMLID_88_" class="st2" d="M42.4,47.1c0.1,0.2,0.3,0.3,0.4,0.5c0.1,0.1,0.2,0.2,0.2,0.3c0.1,0.1,0.2,0.2,0.3,0.3
			c0.2,0.2,0.4,0.5,0.6,0.7c0.2,0.3,0.4,0.5,0.6,0.8c0.4,0.6,0.9,1.2,1.3,1.8c0.2,0.3,0.5,0.7,0.7,1c0.2,0.4,0.5,0.7,0.7,1.1
			c0.5,0.7,1,1.5,1.4,2.3c0.2,0.4,0.5,0.8,0.7,1.2c0.2,0.4,0.5,0.8,0.7,1.2c0.5,0.8,0.9,1.6,1.3,2.5c0.1,0.2,0.2,0.4,0.3,0.6
			c0.1,0.2,0.2,0.4,0.3,0.6c0.2,0.4,0.4,0.8,0.6,1.2c0.4,0.8,0.8,1.6,1.1,2.3c0.3,0.7,0.7,1.4,1,2.1c0.2,0.5,0.4,1,0.6,1.4
			c0.4-0.3,0.8-0.6,1.1-0.9c2.2-1.7,4.4-3.6,6.5-5.6c0.3-0.3,0.6-0.6,0.9-0.8c0-0.1,0-0.1,0-0.2c0-0.2-0.1-0.5-0.2-0.9
			c-0.1-0.8-0.3-1.9-0.6-3.2c-0.1-0.7-0.3-1.4-0.5-2.2c-0.2-0.8-0.4-1.6-0.6-2.4c-0.2-0.8-0.4-1.7-0.6-2.5c-0.1-0.4-0.2-0.9-0.4-1.3
			c-0.1-0.4-0.2-0.9-0.4-1.3c-0.1-0.4-0.3-0.9-0.4-1.3c-0.1-0.2-0.1-0.4-0.2-0.6c-0.1-0.2-0.1-0.4-0.2-0.6c-0.1-0.2-0.1-0.4-0.2-0.6
			c-0.1-0.2-0.1-0.4-0.2-0.6c-0.1-0.4-0.3-0.8-0.4-1.2c-0.6-1.6-1.2-3.1-1.8-4.3c-0.1-0.3-0.3-0.6-0.4-0.9c-0.1-0.1-0.1-0.3-0.2-0.4
			c-0.1-0.1-0.1-0.3-0.2-0.4c-0.1-0.2-0.2-0.4-0.4-0.6c-5.4,2.9-10.4,6.3-14,10.7C42.2,46.8,42.3,46.9,42.4,47.1z"/>
		
			<linearGradient id="XMLID_4_" gradientUnits="userSpaceOnUse" x1="-96.5139" y1="45.539" x2="-21.7073" y2="-3.9654" gradientTransform="matrix(0.9234 -0.3838 0.3838 0.9234 108.2013 12.6402)">
			<stop  offset="0" style="stop-color:#006838"/>
			<stop  offset="0.1349" style="stop-color:#318333"/>
			<stop  offset="0.2923" style="stop-color:#639E2E"/>
			<stop  offset="0.4482" style="stop-color:#8CB52A"/>
			<stop  offset="0.5994" style="stop-color:#ACC727"/>
			<stop  offset="0.7445" style="stop-color:#C3D425"/>
			<stop  offset="0.881" style="stop-color:#D1DB23"/>
			<stop  offset="1" style="stop-color:#D6DE23"/>
		</linearGradient>
		<path id="XMLID_87_" class="st3" d="M69,29.9c0.1,0.2,0.2,0.4,0.4,0.7c0.1,0.2,0.3,0.5,0.4,0.8c0.1,0.3,0.3,0.6,0.4,0.9
			c0.1,0.3,0.3,0.6,0.4,0.9c0.1,0.3,0.3,0.7,0.4,1c0.1,0.3,0.3,0.7,0.4,1c0.1,0.4,0.3,0.7,0.4,1.1c0.1,0.4,0.2,0.7,0.4,1.1
			c0.2,0.8,0.5,1.5,0.7,2.3l0.2,0.6c0.1,0.2,0.1,0.4,0.2,0.6c0.1,0.4,0.2,0.8,0.3,1.2c0.2,0.8,0.4,1.5,0.6,2.3
			c0.2,0.7,0.3,1.4,0.5,2.1c0.1,0.7,0.3,1.3,0.4,1.9c0,0.2,0.1,0.4,0.1,0.6c1.6-2.3,2.9-4.7,4.1-7.1c0.6-1.3,1.2-2.5,1.7-3.8
			c0.5-1.3,0.9-2.5,1.3-3.7c0.4-1.2,0.7-2.4,0.9-3.6c0.1-0.3,0.1-0.6,0.2-0.9c0.1-0.3,0.1-0.6,0.2-0.9c0.1-0.6,0.2-1.2,0.3-1.7
			c0.2-1.1,0.3-2.2,0.4-3.2c0-0.5,0-1,0.1-1.5c0-0.5,0-1,0-1.4c-0.1-1.8-0.3-3.4-0.6-4.7c-0.3-1.3-0.6-2.3-0.8-3
			c-0.1-0.3-0.2-0.6-0.2-0.8c-0.1-0.2-0.1-0.3-0.1-0.3c1.7,8.2-4.9,12.9-13.5,17.4C68.9,29.7,68.9,29.8,69,29.9z"/>
		
			<linearGradient id="XMLID_5_" gradientUnits="userSpaceOnUse" x1="-92.2231" y1="52.0233" x2="-17.4163" y2="2.5187" gradientTransform="matrix(0.9234 -0.3838 0.3838 0.9234 108.2013 12.6402)">
			<stop  offset="0" style="stop-color:#006838"/>
			<stop  offset="0.1349" style="stop-color:#318333"/>
			<stop  offset="0.2923" style="stop-color:#639E2E"/>
			<stop  offset="0.4482" style="stop-color:#8CB52A"/>
			<stop  offset="0.5994" style="stop-color:#ACC727"/>
			<stop  offset="0.7445" style="stop-color:#C3D425"/>
			<stop  offset="0.881" style="stop-color:#D1DB23"/>
			<stop  offset="1" style="stop-color:#D6DE23"/>
		</linearGradient>
		<path id="XMLID_86_" class="st4" d="M82.7,13.2c0.3,0.7,0.7,1.6,1.1,2.9c0.4,1.3,0.8,2.9,1.1,4.8c0.1,0.5,0.1,1,0.2,1.5
			c0,0.5,0.1,1,0.1,1.6c0,1.1,0,2.2-0.1,3.3c0,0.6-0.1,1.2-0.1,1.8c0,0.3-0.1,0.6-0.1,0.9c0,0.3-0.1,0.6-0.1,0.9
			c-0.2,1.3-0.4,2.5-0.6,3.9c-0.3,1.3-0.6,2.7-1,4c-0.4,1.4-0.8,2.7-1.4,4.1c-1,2.7-2.3,5.4-3.8,8.1c0.3-0.1,0.5-0.1,0.8-0.2
			c0.5-0.1,1-0.2,1.6-0.3c0.3-0.1,0.6-0.1,0.8-0.1c0.3,0,0.6-0.1,0.9-0.1c0.6-0.1,1.2-0.2,1.8-0.2c0.3,0,0.6-0.1,0.9-0.1
			c0.3,0,0.6,0,0.9-0.1c0.3,0,0.6,0,0.9,0c0.1,0,0.3,0,0.4,0c0.1,0,0.3,0,0.4,0c0.1,0,0.3,0,0.4,0c0.1,0,0.3,0,0.4,0
			c0.1,0,0.3,0,0.4,0c0.1,0,0.3,0,0.4,0c0.3,0,0.5,0,0.7,0.1c0.2,0,0.5,0.1,0.7,0.1c0.1,0,0.2,0,0.3,0.1c0.1,0,0.2,0,0.3,0.1
			c0,0,0,0,0.1,0c2.9-19.7-8.8-38-8.8-38s0,0.1,0.1,0.3C82.4,12.6,82.6,12.9,82.7,13.2z"/>
		
			<linearGradient id="XMLID_6_" gradientUnits="userSpaceOnUse" x1="-86.1865" y1="61.1455" x2="-11.379" y2="11.6405" gradientTransform="matrix(0.9234 -0.3838 0.3838 0.9234 108.2013 12.6402)">
			<stop  offset="0" style="stop-color:#006838"/>
			<stop  offset="0.1349" style="stop-color:#318333"/>
			<stop  offset="0.2923" style="stop-color:#639E2E"/>
			<stop  offset="0.4482" style="stop-color:#8CB52A"/>
			<stop  offset="0.5994" style="stop-color:#ACC727"/>
			<stop  offset="0.7445" style="stop-color:#C3D425"/>
			<stop  offset="0.881" style="stop-color:#D1DB23"/>
			<stop  offset="1" style="stop-color:#D6DE23"/>
		</linearGradient>
		<path id="XMLID_85_" class="st5" d="M91,50.4c-0.1,0-0.2,0-0.3,0c-0.1,0-0.2,0-0.3,0c-0.2,0-0.4,0-0.7,0c-0.2,0-0.5,0-0.7,0
			c-0.1,0-0.3,0-0.4,0c-0.1,0-0.3,0-0.4,0c-0.1,0-0.3,0-0.4,0c-0.1,0-0.3,0-0.4,0c-0.1,0-0.3,0-0.4,0c-0.1,0-0.3,0-0.4,0.1
			c-0.3,0-0.6,0.1-0.8,0.1c-0.3,0-0.6,0.1-0.9,0.2C84.5,51,84.3,51,84,51.1c-0.6,0.1-1.1,0.3-1.7,0.4c-0.3,0.1-0.6,0.2-0.8,0.2
			c-0.3,0.1-0.5,0.2-0.8,0.2c-0.5,0.2-1,0.3-1.5,0.5c-0.5,0.2-0.9,0.3-1.3,0.5c-0.4,0.2-0.8,0.3-1.1,0.4c-0.1,0-0.2,0.1-0.3,0.1
			c-1.1,1.9-2.4,3.7-3.6,5.5c-0.4,0.5-0.7,1-1.1,1.5c2.4,0.2,5.4,0.6,8.3,1.2c1.6,0.3,3.2,0.7,4.7,1.2c0.6,0.2,1.2,0.4,1.8,0.6
			C89,59.2,90.4,54.8,91,50.4C91,50.4,91,50.4,91,50.4z"/>
		
			<linearGradient id="XMLID_7_" gradientUnits="userSpaceOnUse" x1="-101.7181" y1="37.6758" x2="-26.9112" y2="-11.8287" gradientTransform="matrix(0.9234 -0.3838 0.3838 0.9234 108.2013 12.6402)">
			<stop  offset="0" style="stop-color:#006838"/>
			<stop  offset="0.1349" style="stop-color:#318333"/>
			<stop  offset="0.2923" style="stop-color:#639E2E"/>
			<stop  offset="0.4482" style="stop-color:#8CB52A"/>
			<stop  offset="0.5994" style="stop-color:#ACC727"/>
			<stop  offset="0.7445" style="stop-color:#C3D425"/>
			<stop  offset="0.881" style="stop-color:#D1DB23"/>
			<stop  offset="1" style="stop-color:#D6DE23"/>
		</linearGradient>
		<path id="XMLID_84_" class="st6" d="M44,77c2.5-1.6,5.3-3.4,8.1-5.4c-0.2-0.7-0.4-1.6-0.7-2.6c-0.2-0.7-0.4-1.4-0.6-2.1
			c-0.2-0.8-0.5-1.6-0.8-2.4c-0.1-0.4-0.3-0.8-0.4-1.2c-0.1-0.2-0.1-0.4-0.2-0.6c-0.1-0.2-0.2-0.4-0.2-0.6c-0.3-0.9-0.6-1.7-1-2.6
			c-0.2-0.4-0.3-0.9-0.5-1.3c-0.2-0.4-0.3-0.9-0.5-1.3c-0.4-0.8-0.7-1.7-1.1-2.4c-0.2-0.4-0.4-0.8-0.5-1.2c-0.2-0.4-0.4-0.7-0.5-1.1
			c-0.4-0.7-0.7-1.4-1-2c-0.2-0.3-0.3-0.6-0.5-0.9c-0.2-0.3-0.3-0.5-0.5-0.8c-0.1-0.1-0.1-0.2-0.2-0.4c-0.1-0.1-0.1-0.2-0.2-0.3
			c-0.1-0.2-0.2-0.4-0.4-0.6c-0.1-0.1-0.1-0.2-0.2-0.3c-3.2,4.1-5.1,9.2-4.8,15.7c1.2,9.9-0.2,16-1.3,19C38.2,80.4,40.9,78.9,44,77z
			"/>
		
			<linearGradient id="XMLID_8_" gradientUnits="userSpaceOnUse" x1="-88.6401" y1="57.4379" x2="-13.8318" y2="7.9324" gradientTransform="matrix(0.9234 -0.3838 0.3838 0.9234 108.2013 12.6402)">
			<stop  offset="0" style="stop-color:#006838"/>
			<stop  offset="0.1349" style="stop-color:#318333"/>
			<stop  offset="0.2923" style="stop-color:#639E2E"/>
			<stop  offset="0.4482" style="stop-color:#8CB52A"/>
			<stop  offset="0.5994" style="stop-color:#ACC727"/>
			<stop  offset="0.7445" style="stop-color:#C3D425"/>
			<stop  offset="0.881" style="stop-color:#D1DB23"/>
			<stop  offset="1" style="stop-color:#D6DE23"/>
		</linearGradient>
		<path id="XMLID_83_" class="st7" d="M72.2,79.3c-0.1-0.1-0.2-0.1-0.3-0.2c-0.1-0.1-0.2-0.1-0.3-0.2c-0.2-0.1-0.4-0.3-0.7-0.4
			c-0.5-0.2-1-0.5-1.5-0.7c-0.3-0.1-0.5-0.2-0.8-0.3c-0.3-0.1-0.5-0.2-0.8-0.3c-0.1-0.1-0.3-0.1-0.4-0.2c-0.1,0-0.3-0.1-0.4-0.1
			c-0.3-0.1-0.6-0.2-0.9-0.3c-0.3-0.1-0.6-0.2-0.9-0.3c-0.3-0.1-0.6-0.2-0.9-0.2c-0.6-0.1-1.1-0.3-1.7-0.4c-0.6-0.1-1.1-0.2-1.6-0.3
			c-0.5-0.1-1-0.1-1.4-0.2c-0.6-0.1-1.1-0.1-1.6-0.1c-3.1,2.8-6.2,5.3-9,7.5c1.8-0.1,3.6,0,5.2,0.2c5.6,0.8,11.4,2.3,18.5-3.2
			C72.5,79.6,72.4,79.4,72.2,79.3z"/>
		
			<linearGradient id="XMLID_9_" gradientUnits="userSpaceOnUse" x1="-86.6516" y1="60.4426" x2="-11.8441" y2="10.9376" gradientTransform="matrix(0.9234 -0.3838 0.3838 0.9234 108.2013 12.6402)">
			<stop  offset="0" style="stop-color:#006838"/>
			<stop  offset="0.1349" style="stop-color:#318333"/>
			<stop  offset="0.2923" style="stop-color:#639E2E"/>
			<stop  offset="0.4482" style="stop-color:#8CB52A"/>
			<stop  offset="0.5994" style="stop-color:#ACC727"/>
			<stop  offset="0.7445" style="stop-color:#C3D425"/>
			<stop  offset="0.881" style="stop-color:#D1DB23"/>
			<stop  offset="1" style="stop-color:#D6DE23"/>
		</linearGradient>
		<path id="XMLID_82_" class="st8" d="M84.5,63.7c-1.5-0.3-3.1-0.5-4.7-0.6c-3.2-0.3-6.4-0.3-8.9-0.3c-0.4,0-0.8,0-1.1,0
			c-1,1.2-1.9,2.3-2.9,3.5c-2.1,2.3-4.2,4.5-6.3,6.5c0,0,0,0,0,0c0.3,0.1,0.7,0.2,1,0.3c0.5,0.2,1.1,0.3,1.6,0.6
			c0.6,0.2,1.1,0.4,1.7,0.7c0.3,0.1,0.6,0.2,0.9,0.4c0.3,0.1,0.6,0.3,0.9,0.4c0.3,0.1,0.6,0.3,0.8,0.4c0.1,0.1,0.3,0.1,0.4,0.2
			c0.1,0.1,0.3,0.2,0.4,0.2c0.3,0.2,0.5,0.3,0.8,0.5c0.3,0.2,0.5,0.3,0.8,0.5c0.5,0.3,1,0.7,1.4,1c0.2,0.2,0.4,0.3,0.6,0.5
			c0.1,0.1,0.2,0.2,0.3,0.2c0.1,0.1,0.2,0.2,0.3,0.2c0.2,0.2,0.4,0.3,0.5,0.5c1.8-1.4,9.1-5.6,13.2-15.3
			C85.7,64,85.1,63.8,84.5,63.7z"/>
	</g>
	<g id="XMLID_104_">
		<path id="XMLID_77_" class="st0" d="M48.4,89.6c0,0,9.6-5.6,10.9-7.5c1.5-2.1,12-7.6,14.7-12.8c2.2-4.8,1.8-7,2.1-12.4
			c0.2-3.9,0.6-8.4-0.1-12.9c-0.4-2.6-1.2-5.1-2.2-7.8c-0.7-2-1.7-3.8-2.8-5.7c-6.7-11.1-21-20.3-30.8-23.8c2.6,2.3,4.2,5.3,4.1,9.2
			c-0.1,3.4-1.6,7.4-2.8,11.1c-2,4.2-3.9,9.1-5.5,12.3c0,0-1.2,2.6-2.4,5.7c-1.9,5.1-3.9,13.1-1.5,20.1C33.9,70.4,41,76.8,44,81.2
			C47.7,86.5,48.4,88.7,48.4,89.6z"/>
		
			<linearGradient id="XMLID_10_" gradientUnits="userSpaceOnUse" x1="-130.5249" y1="-165.0003" x2="-55.7201" y2="-214.5035" gradientTransform="matrix(0.4692 -0.8831 0.8831 0.4692 258.8331 59.6491)">
			<stop  offset="0" style="stop-color:#EC1C24"/>
			<stop  offset="0.1327" style="stop-color:#F04C1C"/>
			<stop  offset="0.2905" style="stop-color:#F57E13"/>
			<stop  offset="0.4468" style="stop-color:#F8A70C"/>
			<stop  offset="0.5984" style="stop-color:#FBC707"/>
			<stop  offset="0.7439" style="stop-color:#FDDE03"/>
			<stop  offset="0.8807" style="stop-color:#FFEC01"/>
			<stop  offset="1" style="stop-color:#FFF100"/>
		</linearGradient>
		<path id="XMLID_74_" class="st9" d="M51.8,48.8c0.8,0.4,1.5,0.9,2.2,1.3c0.7,0.4,1.3,0.8,1.9,1.2c0.8,0.5,1.4,0.9,2,1.3
			c0.1-1.2,0.2-2.4,0.2-3.6c0.1-1.9,0-3.9,0-5.8c-0.1-0.1-0.1-0.1-0.2-0.2c-0.5-0.5-1.2-1.2-2-2.1c-0.4-0.4-0.9-0.9-1.4-1.4
			c-0.5-0.5-1-1-1.5-1.5c-0.5-0.5-1.1-1-1.7-1.6c-0.3-0.3-0.6-0.5-0.9-0.8c-0.1-0.1-0.3-0.3-0.4-0.4L49.4,35c-0.6-0.5-1.2-1-1.8-1.5
			c-0.3-0.2-0.6-0.5-0.9-0.7c-0.3-0.2-0.6-0.5-0.9-0.7c-0.3-0.2-0.6-0.4-0.9-0.6c-0.3-0.2-0.6-0.4-0.9-0.6c-0.3-0.2-0.6-0.4-0.8-0.5
			c-0.3-0.2-0.5-0.3-0.8-0.5c-0.3-0.1-0.5-0.3-0.7-0.4c-0.2-0.1-0.5-0.2-0.7-0.3c-0.1,0-0.2-0.1-0.3-0.1c-1.7,4-3.8,8.2-5.5,12.6
			c0.2,0.1,0.4,0.1,0.7,0.2c0.1,0,0.3,0.1,0.4,0.1c0.1,0,0.3,0.1,0.4,0.1c0.3,0.1,0.6,0.2,1,0.3c1.3,0.4,2.8,1,4.4,1.7
			c0.4,0.2,0.8,0.3,1.2,0.5c0.2,0.1,0.4,0.2,0.6,0.3c0.2,0.1,0.4,0.2,0.6,0.3c0.2,0.1,0.4,0.2,0.6,0.3c0.2,0.1,0.4,0.2,0.6,0.3
			c0.4,0.2,0.8,0.4,1.2,0.6c0.4,0.2,0.8,0.4,1.2,0.6c0.4,0.2,0.8,0.4,1.2,0.7C50.2,47.9,51,48.4,51.8,48.8z"/>
		
			<linearGradient id="XMLID_11_" gradientUnits="userSpaceOnUse" x1="-132.6042" y1="-168.1424" x2="-57.7998" y2="-217.6453" gradientTransform="matrix(0.4692 -0.8831 0.8831 0.4692 258.8331 59.6491)">
			<stop  offset="0" style="stop-color:#EC1C24"/>
			<stop  offset="0.1327" style="stop-color:#F04C1C"/>
			<stop  offset="0.2905" style="stop-color:#F57E13"/>
			<stop  offset="0.4468" style="stop-color:#F8A70C"/>
			<stop  offset="0.5984" style="stop-color:#FBC707"/>
			<stop  offset="0.7439" style="stop-color:#FDDE03"/>
			<stop  offset="0.8807" style="stop-color:#FFEC01"/>
			<stop  offset="1" style="stop-color:#FFF100"/>
		</linearGradient>
		<path id="XMLID_71_" class="st10" d="M31.5,58.9c0.2,0,0.4,0.1,0.7,0.1c0.1,0,0.2,0,0.4,0.1c0.1,0,0.3,0.1,0.4,0.1
			c0.3,0.1,0.6,0.1,0.9,0.2c0.3,0.1,0.6,0.2,1,0.2c0.7,0.2,1.4,0.4,2.2,0.6c0.4,0.1,0.8,0.2,1.2,0.4c0.4,0.1,0.8,0.3,1.2,0.4
			c0.8,0.3,1.7,0.6,2.6,0.9c0.4,0.2,0.9,0.3,1.3,0.5c0.4,0.2,0.9,0.3,1.3,0.5c0.9,0.3,1.8,0.7,2.6,1.1c0.2,0.1,0.4,0.2,0.6,0.3
			c0.2,0.1,0.4,0.2,0.6,0.3c0.4,0.2,0.8,0.4,1.2,0.5c0.8,0.4,1.6,0.7,2.3,1.1c0.7,0.3,1.4,0.7,2.1,1c0.5,0.2,1,0.5,1.4,0.7
			c0.1-0.5,0.2-0.9,0.3-1.4c0.6-2.7,1.1-5.6,1.5-8.5c0.1-0.4,0.1-0.8,0.2-1.2c0,0-0.1-0.1-0.2-0.1c-0.2-0.1-0.4-0.3-0.7-0.6
			c-0.6-0.5-1.5-1.2-2.5-2.1c-0.5-0.4-1.1-0.9-1.7-1.4c-0.6-0.5-1.3-1-1.9-1.5c-0.7-0.5-1.4-1-2.1-1.6c-0.4-0.3-0.7-0.5-1.1-0.8
			c-0.4-0.3-0.7-0.5-1.1-0.8c-0.4-0.3-0.8-0.5-1.1-0.8c-0.2-0.1-0.4-0.2-0.6-0.4c-0.2-0.1-0.4-0.2-0.6-0.4c-0.2-0.1-0.4-0.2-0.6-0.4
			c-0.2-0.1-0.4-0.2-0.6-0.3c-0.4-0.2-0.7-0.4-1.1-0.7c-1.5-0.9-2.9-1.6-4.1-2.2c-0.3-0.2-0.6-0.3-0.9-0.4c-0.1-0.1-0.3-0.1-0.4-0.2
			C36,42.1,35.8,42,35.7,42c-0.2-0.1-0.5-0.2-0.7-0.3c-2.3,5.7-4.1,11.5-4,17.2C31.2,58.9,31.3,58.9,31.5,58.9z"/>
		
			<linearGradient id="XMLID_12_" gradientUnits="userSpaceOnUse" x1="-128.6186" y1="-162.1206" x2="-53.8141" y2="-211.6236" gradientTransform="matrix(0.4692 -0.8831 0.8831 0.4692 258.8331 59.6491)">
			<stop  offset="0" style="stop-color:#EC1C24"/>
			<stop  offset="0.1327" style="stop-color:#F04C1C"/>
			<stop  offset="0.2905" style="stop-color:#F57E13"/>
			<stop  offset="0.4468" style="stop-color:#F8A70C"/>
			<stop  offset="0.5984" style="stop-color:#FBC707"/>
			<stop  offset="0.7439" style="stop-color:#FDDE03"/>
			<stop  offset="0.8807" style="stop-color:#FFEC01"/>
			<stop  offset="1" style="stop-color:#FFF100"/>
		</linearGradient>
		<path id="XMLID_68_" class="st11" d="M41.1,28.8c0.2,0.1,0.5,0.2,0.7,0.3c0.3,0.1,0.5,0.2,0.8,0.3c0.3,0.1,0.6,0.3,0.9,0.4
			c0.3,0.1,0.6,0.3,0.9,0.5c0.3,0.2,0.6,0.3,0.9,0.5c0.3,0.2,0.6,0.4,1,0.6c0.3,0.2,0.7,0.4,1,0.6c0.3,0.2,0.7,0.4,1,0.6
			c0.7,0.4,1.3,0.9,2,1.3l0.5,0.3c0.2,0.1,0.3,0.2,0.5,0.3c0.3,0.2,0.6,0.5,1,0.7c0.6,0.5,1.3,0.9,1.9,1.4c0.6,0.5,1.2,0.9,1.7,1.3
			c0.5,0.4,1.1,0.8,1.5,1.2c0.2,0.1,0.3,0.3,0.5,0.4c-0.3-2.8-0.7-5.5-1.3-8.1c-0.3-1.4-0.7-2.7-1.1-4c-0.4-1.3-0.9-2.5-1.4-3.7
			c-0.5-1.2-1-2.3-1.6-3.4c-0.1-0.3-0.3-0.5-0.4-0.8c-0.1-0.3-0.3-0.5-0.4-0.8c-0.3-0.5-0.6-1-0.9-1.5c-0.6-1-1.2-1.9-1.8-2.7
			c-0.3-0.4-0.6-0.8-0.9-1.2c-0.3-0.4-0.6-0.7-0.9-1.1c-1.2-1.4-2.4-2.4-3.5-3.3c-1-0.8-1.9-1.4-2.5-1.8c-0.3-0.2-0.5-0.3-0.7-0.4
			c-0.2-0.1-0.2-0.2-0.2-0.2c6.5,5.3,4.5,13.1,0.7,22C40.8,28.7,41,28.8,41.1,28.8z"/>
		
			<linearGradient id="XMLID_13_" gradientUnits="userSpaceOnUse" x1="-124.3283" y1="-155.6366" x2="-49.5233" y2="-205.1399" gradientTransform="matrix(0.4692 -0.8831 0.8831 0.4692 258.8331 59.6491)">
			<stop  offset="0" style="stop-color:#EC1C24"/>
			<stop  offset="0.1327" style="stop-color:#F04C1C"/>
			<stop  offset="0.2905" style="stop-color:#F57E13"/>
			<stop  offset="0.4468" style="stop-color:#F8A70C"/>
			<stop  offset="0.5984" style="stop-color:#FBC707"/>
			<stop  offset="0.7439" style="stop-color:#FDDE03"/>
			<stop  offset="0.8807" style="stop-color:#FFEC01"/>
			<stop  offset="1" style="stop-color:#FFF100"/>
		</linearGradient>
		<path id="XMLID_65_" class="st12" d="M41,7.2c0.6,0.3,1.6,0.9,2.7,1.6c1.1,0.7,2.5,1.7,3.8,3c0.3,0.3,0.7,0.7,1,1
			c0.4,0.4,0.7,0.7,1.1,1.1c0.7,0.8,1.4,1.7,2.1,2.6c0.3,0.5,0.7,1,1,1.5c0.2,0.3,0.3,0.5,0.5,0.8c0.2,0.3,0.3,0.5,0.5,0.8
			c0.7,1.1,1.3,2.2,2,3.4c0.6,1.2,1.2,2.4,1.8,3.7c0.6,1.3,1.1,2.6,1.6,4c0.9,2.7,1.7,5.7,2.3,8.7c0.2-0.2,0.3-0.4,0.5-0.6
			c0.3-0.4,0.7-0.8,1-1.3c0.2-0.2,0.4-0.4,0.6-0.7c0.2-0.2,0.4-0.4,0.6-0.7c0.4-0.4,0.8-0.9,1.2-1.3c0.2-0.2,0.4-0.4,0.6-0.6
			c0.2-0.2,0.4-0.4,0.7-0.6c0.2-0.2,0.4-0.4,0.7-0.6c0.1-0.1,0.2-0.2,0.3-0.3c0.1-0.1,0.2-0.2,0.3-0.3c0.1-0.1,0.2-0.2,0.3-0.3
			c0.1-0.1,0.2-0.2,0.3-0.2c0.1-0.1,0.2-0.2,0.3-0.2c0.1-0.1,0.2-0.2,0.3-0.2c0.2-0.2,0.4-0.3,0.6-0.4c0.2-0.1,0.4-0.3,0.6-0.4
			c0.1-0.1,0.2-0.1,0.3-0.2c0.1,0,0.2-0.1,0.3-0.1c0,0,0,0,0.1,0C60.8,13.4,40.1,6.7,40.1,6.7s0.1,0,0.2,0.1C40.5,6.9,40.7,7,41,7.2
			z"/>
		
			<linearGradient id="XMLID_14_" gradientUnits="userSpaceOnUse" x1="-118.2921" y1="-146.5143" x2="-43.486" y2="-196.0184" gradientTransform="matrix(0.4692 -0.8831 0.8831 0.4692 258.8331 59.6491)">
			<stop  offset="0" style="stop-color:#EC1C24"/>
			<stop  offset="0.1327" style="stop-color:#F04C1C"/>
			<stop  offset="0.2905" style="stop-color:#F57E13"/>
			<stop  offset="0.4468" style="stop-color:#F8A70C"/>
			<stop  offset="0.5984" style="stop-color:#FBC707"/>
			<stop  offset="0.7439" style="stop-color:#FDDE03"/>
			<stop  offset="0.8807" style="stop-color:#FFEC01"/>
			<stop  offset="1" style="stop-color:#FFF100"/>
		</linearGradient>
		<path id="XMLID_62_" class="st13" d="M71.1,30.7c-0.1,0.1-0.2,0.1-0.3,0.2c-0.1,0.1-0.2,0.1-0.3,0.2c-0.2,0.1-0.4,0.3-0.5,0.4
			c-0.2,0.2-0.4,0.3-0.6,0.5c-0.1,0.1-0.2,0.2-0.3,0.3c-0.1,0.1-0.2,0.2-0.3,0.3c-0.1,0.1-0.2,0.2-0.3,0.3c-0.1,0.1-0.2,0.2-0.3,0.3
			c-0.1,0.1-0.2,0.2-0.3,0.3c-0.1,0.1-0.2,0.2-0.3,0.3c-0.2,0.2-0.4,0.4-0.6,0.6c-0.2,0.2-0.4,0.4-0.6,0.7c-0.2,0.2-0.4,0.5-0.5,0.7
			c-0.4,0.5-0.7,0.9-1,1.4c-0.2,0.2-0.3,0.5-0.5,0.7c-0.2,0.2-0.3,0.5-0.5,0.7c-0.3,0.5-0.6,0.9-0.8,1.3c-0.3,0.4-0.5,0.8-0.7,1.2
			c-0.2,0.4-0.4,0.7-0.6,1c0,0.1-0.1,0.2-0.1,0.3c0.3,2.2,0.5,4.4,0.7,6.6c0,0.6,0.1,1.2,0.1,1.8c2-1.3,4.5-2.9,7.2-4.3
			c1.5-0.8,2.9-1.5,4.4-2.1c0.6-0.3,1.2-0.5,1.8-0.7C75.1,38.7,73.4,34.5,71.1,30.7C71.1,30.7,71.1,30.7,71.1,30.7z"/>
		
			<linearGradient id="XMLID_15_" gradientUnits="userSpaceOnUse" x1="-133.8229" y1="-169.9836" x2="-59.0186" y2="-219.4865" gradientTransform="matrix(0.4692 -0.8831 0.8831 0.4692 258.8331 59.6491)">
			<stop  offset="0" style="stop-color:#EC1C24"/>
			<stop  offset="0.1327" style="stop-color:#F04C1C"/>
			<stop  offset="0.2905" style="stop-color:#F57E13"/>
			<stop  offset="0.4468" style="stop-color:#F8A70C"/>
			<stop  offset="0.5984" style="stop-color:#FBC707"/>
			<stop  offset="0.7439" style="stop-color:#FDDE03"/>
			<stop  offset="0.8807" style="stop-color:#FFEC01"/>
			<stop  offset="1" style="stop-color:#FFF100"/>
		</linearGradient>
		<path id="XMLID_59_" class="st14" d="M51.7,81c1-2.8,1.9-5.9,2.8-9.3c-0.6-0.4-1.4-1-2.2-1.6c-0.6-0.4-1.2-0.8-1.9-1.2
			c-0.7-0.4-1.4-0.9-2.1-1.3c-0.4-0.2-0.7-0.5-1.1-0.7c-0.2-0.1-0.4-0.2-0.6-0.4c-0.2-0.1-0.4-0.2-0.6-0.3c-0.8-0.5-1.6-0.9-2.4-1.4
			c-0.4-0.2-0.8-0.4-1.2-0.7c-0.4-0.2-0.8-0.4-1.2-0.6c-0.8-0.4-1.6-0.8-2.4-1.2c-0.4-0.2-0.8-0.4-1.2-0.6c-0.4-0.2-0.7-0.4-1.1-0.5
			c-0.7-0.3-1.4-0.6-2.1-0.9c-0.3-0.1-0.6-0.2-0.9-0.4c-0.3-0.1-0.6-0.2-0.8-0.3c-0.1,0-0.3-0.1-0.4-0.1c-0.1,0-0.2-0.1-0.4-0.1
			c-0.2-0.1-0.4-0.2-0.6-0.2c-0.1,0-0.2-0.1-0.3-0.1c0.1,5.2,1.9,10.3,6.3,15.1c7.2,6.9,10,12.5,11.1,15.5
			C49.4,87.4,50.5,84.5,51.7,81z"/>
		
			<linearGradient id="XMLID_16_" gradientUnits="userSpaceOnUse" x1="-120.7456" y1="-150.2218" x2="-45.9384" y2="-199.7266" gradientTransform="matrix(0.4692 -0.8831 0.8831 0.4692 258.8331 59.6491)">
			<stop  offset="0" style="stop-color:#EC1C24"/>
			<stop  offset="0.1327" style="stop-color:#F04C1C"/>
			<stop  offset="0.2905" style="stop-color:#F57E13"/>
			<stop  offset="0.4468" style="stop-color:#F8A70C"/>
			<stop  offset="0.5984" style="stop-color:#FBC707"/>
			<stop  offset="0.7439" style="stop-color:#FDDE03"/>
			<stop  offset="0.8807" style="stop-color:#FFEC01"/>
			<stop  offset="1" style="stop-color:#FFF100"/>
		</linearGradient>
		<path id="XMLID_56_" class="st15" d="M74.9,65c-0.1,0-0.2,0-0.3,0c-0.1,0-0.2,0-0.4,0.1c-0.2,0-0.5,0.1-0.8,0.1
			c-0.5,0.1-1.1,0.2-1.6,0.4c-0.3,0.1-0.6,0.2-0.8,0.2c-0.3,0.1-0.6,0.2-0.8,0.3c-0.1,0-0.3,0.1-0.4,0.1c-0.1,0.1-0.3,0.1-0.4,0.2
			c-0.3,0.1-0.6,0.2-0.8,0.3c-0.3,0.1-0.6,0.2-0.8,0.4c-0.3,0.1-0.5,0.3-0.8,0.4c-0.5,0.3-1.1,0.5-1.5,0.8c-0.5,0.3-1,0.5-1.4,0.8
			c-0.4,0.3-0.9,0.5-1.2,0.8c-0.5,0.3-0.9,0.6-1.3,0.9c-0.6,4.2-1.4,8.1-2.2,11.5c1.3-1.2,2.7-2.3,4.1-3.1c4.8-3,10.3-5.5,12.2-14.2
			C75.4,64.9,75.2,64.9,74.9,65z"/>
		
			<linearGradient id="XMLID_17_" gradientUnits="userSpaceOnUse" x1="-118.8939" y1="-147.4234" x2="-44.0875" y2="-196.9277" gradientTransform="matrix(0.4692 -0.8831 0.8831 0.4692 258.8331 59.6491)">
			<stop  offset="0" style="stop-color:#EC1C24"/>
			<stop  offset="0.1327" style="stop-color:#F04C1C"/>
			<stop  offset="0.2905" style="stop-color:#F57E13"/>
			<stop  offset="0.4468" style="stop-color:#F8A70C"/>
			<stop  offset="0.5984" style="stop-color:#FBC707"/>
			<stop  offset="0.7439" style="stop-color:#FDDE03"/>
			<stop  offset="0.8807" style="stop-color:#FFEC01"/>
			<stop  offset="1" style="stop-color:#FFF100"/>
		</linearGradient>
		<path id="XMLID_53_" class="st16" d="M74.6,45.1c-1.3,0.7-2.7,1.6-4,2.5c-2.7,1.8-5.2,3.8-7,5.4c-0.3,0.3-0.6,0.5-0.8,0.7
			c0,1.5,0,3-0.1,4.5c-0.1,3.1-0.4,6.1-0.7,9.1c0,0,0,0,0,0c0.3-0.1,0.6-0.3,1-0.4c0.5-0.2,1-0.4,1.6-0.6c0.6-0.2,1.2-0.4,1.7-0.6
			c0.3-0.1,0.6-0.2,0.9-0.3c0.3-0.1,0.6-0.2,0.9-0.2c0.3-0.1,0.6-0.1,0.9-0.2c0.2,0,0.3-0.1,0.5-0.1c0.2,0,0.3-0.1,0.5-0.1
			c0.3-0.1,0.6-0.1,0.9-0.1c0.3,0,0.6-0.1,0.9-0.1c0.6-0.1,1.2-0.1,1.7-0.1c0.3,0,0.5,0,0.8,0c0.1,0,0.3,0,0.4,0c0.1,0,0.2,0,0.4,0
			c0.3,0,0.5,0,0.7,0c0.4-2.2,0.7-4.8,0.6-8c0.6-4.4,0.5-8.5-0.2-12.3C75.6,44.5,75.1,44.8,74.6,45.1z"/>
	</g>
	<g id="XMLID_93_">
		<path id="XMLID_47_" class="st0" d="M54.7,93.5c0,0,4.7-10,4.7-12.3c0-2.6,5.5-13,4.9-18.9c-0.9-5.2-2.5-6.8-5.3-11.4
			c-2-3.4-4.3-7.3-7.4-10.6c-1.8-1.9-3.9-3.5-6.2-5.2c-1.7-1.2-3.6-2.2-5.6-3.1C28,26.7,11,27.2,1,29.9c3.4,0.4,6.5,2,8.6,5.3
			c1.8,2.8,2.9,7,4,10.7c0.7,4.6,1.9,9.7,2.5,13.3c0,0,0.5,2.9,1.3,6.1c1.4,5.3,4.2,13,10.2,17.4c4.4,3.2,13.8,4.4,18.8,6.4
			C52.3,91.3,54.1,92.7,54.7,93.5z"/>
		
			<linearGradient id="XMLID_18_" gradientUnits="userSpaceOnUse" x1="-414.3509" y1="-345.6194" x2="-339.5353" y2="-395.1296" gradientTransform="matrix(-0.1148 -0.9933 0.9933 -0.1148 357.7463 -353.2921)">
			<stop  offset="0" style="stop-color:#2B388F"/>
			<stop  offset="0.2138" style="stop-color:#2960AB"/>
			<stop  offset="0.428" style="stop-color:#287FC2"/>
			<stop  offset="0.6351" style="stop-color:#2796D3"/>
			<stop  offset="0.83" style="stop-color:#26A4DD"/>
			<stop  offset="1" style="stop-color:#26A9E0"/>
		</linearGradient>
		<path id="XMLID_44_" class="st17" d="M34.3,57.9c0.9-0.1,1.7-0.1,2.5-0.2c0.8,0,1.5-0.1,2.2-0.1c0.9,0,1.7-0.1,2.4-0.1
			c-0.6-1-1.2-2.1-1.9-3.1c-1-1.6-2.2-3.2-3.3-4.7c-0.1,0-0.2,0-0.3-0.1c-0.7-0.1-1.6-0.3-2.8-0.6c-0.6-0.1-1.2-0.2-1.9-0.3
			c-0.7-0.1-1.4-0.2-2.1-0.3c-0.7-0.1-1.5-0.2-2.3-0.3c-0.4-0.1-0.8-0.1-1.2-0.1c-0.2,0-0.4,0-0.6-0.1l-0.6-0.1
			c-0.8-0.1-1.6-0.2-2.4-0.2c-0.4,0-0.8,0-1.2-0.1c-0.4,0-0.8,0-1.1-0.1c-0.4,0-0.7,0-1.1,0c-0.4,0-0.7,0-1,0c-0.3,0-0.7,0-1,0
			c-0.3,0-0.6,0-0.9,0.1c-0.3,0-0.6,0-0.8,0.1c-0.3,0-0.5,0.1-0.8,0.1c-0.1,0-0.2,0-0.3,0.1c0.9,4.3,1.6,8.9,2.6,13.5
			c0.2-0.1,0.4-0.2,0.7-0.2c0.1,0,0.3-0.1,0.4-0.1c0.1,0,0.3-0.1,0.4-0.1c0.3-0.1,0.6-0.2,0.9-0.3c1.3-0.4,2.9-0.8,4.6-1.1
			c0.4-0.1,0.9-0.2,1.3-0.2c0.2,0,0.4-0.1,0.7-0.1c0.2,0,0.4-0.1,0.7-0.1c0.2,0,0.5-0.1,0.7-0.1c0.2,0,0.5-0.1,0.7-0.1
			c0.5-0.1,0.9-0.1,1.4-0.2c0.5-0.1,0.9-0.1,1.4-0.2c0.5-0.1,0.9-0.1,1.4-0.1C32.5,58.1,33.4,58,34.3,57.9z"/>
		
			<linearGradient id="XMLID_19_" gradientUnits="userSpaceOnUse" x1="-416.4302" y1="-348.7634" x2="-341.6151" y2="-398.2734" gradientTransform="matrix(-0.1148 -0.9933 0.9933 -0.1148 357.7463 -353.2921)">
			<stop  offset="0" style="stop-color:#2B388F"/>
			<stop  offset="0.2138" style="stop-color:#2960AB"/>
			<stop  offset="0.428" style="stop-color:#287FC2"/>
			<stop  offset="0.6351" style="stop-color:#2796D3"/>
			<stop  offset="0.83" style="stop-color:#26A4DD"/>
			<stop  offset="1" style="stop-color:#26A9E0"/>
		</linearGradient>
		<path id="XMLID_41_" class="st18" d="M23.3,77.8c0.2-0.1,0.4-0.2,0.6-0.3c0.1-0.1,0.2-0.1,0.4-0.2c0.1-0.1,0.2-0.1,0.4-0.2
			c0.3-0.1,0.5-0.2,0.8-0.3c0.3-0.1,0.6-0.2,0.9-0.4c0.7-0.2,1.4-0.5,2.1-0.8c0.4-0.1,0.8-0.3,1.2-0.4c0.4-0.1,0.8-0.3,1.2-0.4
			c0.8-0.3,1.7-0.5,2.6-0.7c0.4-0.1,0.9-0.2,1.4-0.4c0.5-0.1,0.9-0.2,1.4-0.3c0.9-0.2,1.8-0.4,2.7-0.6c0.2,0,0.5-0.1,0.7-0.1
			c0.2,0,0.5-0.1,0.7-0.1c0.4-0.1,0.9-0.2,1.3-0.3c0.9-0.2,1.7-0.3,2.5-0.4c0.8-0.1,1.6-0.3,2.3-0.4c0.6-0.1,1.1-0.2,1.6-0.2
			c-0.2-0.4-0.4-0.9-0.5-1.3c-1.1-2.6-2.3-5.2-3.6-7.8c-0.2-0.4-0.4-0.7-0.6-1.1c-0.1,0-0.1,0-0.2,0c-0.2,0-0.5-0.1-0.9-0.1
			c-0.8-0.1-1.9-0.2-3.3-0.3c-0.7-0.1-1.4-0.1-2.2-0.2c-0.8,0-1.6-0.1-2.5-0.1c-0.9,0-1.7-0.1-2.6-0.1c-0.4,0-0.9,0-1.4,0
			c-0.5,0-0.9,0-1.4,0c-0.5,0-0.9,0-1.4,0c-0.2,0-0.5,0-0.7,0c-0.2,0-0.4,0-0.7,0c-0.2,0-0.4,0-0.7,0c-0.2,0-0.4,0-0.7,0
			c-0.4,0-0.9,0.1-1.3,0.1c-1.7,0.1-3.3,0.3-4.6,0.5c-0.3,0.1-0.7,0.1-1,0.2c-0.2,0-0.3,0.1-0.4,0.1c-0.1,0-0.3,0.1-0.4,0.1
			c-0.3,0.1-0.5,0.1-0.7,0.2c1.3,6,3.2,11.8,6.5,16.4C23.1,77.9,23.2,77.9,23.3,77.8z"/>
		
			<linearGradient id="XMLID_20_" gradientUnits="userSpaceOnUse" x1="-412.4441" y1="-342.739" x2="-337.6299" y2="-392.2484" gradientTransform="matrix(-0.1148 -0.9933 0.9933 -0.1148 357.7463 -353.2921)">
			<stop  offset="0" style="stop-color:#2B388F"/>
			<stop  offset="0.2138" style="stop-color:#2960AB"/>
			<stop  offset="0.428" style="stop-color:#287FC2"/>
			<stop  offset="0.6351" style="stop-color:#2796D3"/>
			<stop  offset="0.83" style="stop-color:#26A4DD"/>
			<stop  offset="1" style="stop-color:#26A9E0"/>
		</linearGradient>
		<path id="XMLID_38_" class="st19" d="M14.1,47.5c0.2-0.1,0.5-0.1,0.8-0.2c0.3-0.1,0.6-0.1,0.8-0.2c0.3-0.1,0.6-0.1,0.9-0.2
			c0.3-0.1,0.7-0.1,1-0.1c0.3,0,0.7-0.1,1.1-0.1c0.4,0,0.7-0.1,1.1-0.1c0.4,0,0.8,0,1.1-0.1c0.4,0,0.8,0,1.2,0c0.8,0,1.6,0,2.4,0
			l0.6,0c0.2,0,0.4,0,0.6,0c0.4,0,0.8,0,1.2,0c0.8,0,1.6,0.1,2.3,0.1c0.8,0,1.5,0.1,2.2,0.1c0.7,0,1.3,0.1,1.9,0.1
			c0.2,0,0.4,0,0.6,0.1c-1.8-2.1-3.7-4.1-5.7-5.9c-1-0.9-2.1-1.8-3.2-2.6c-1.1-0.8-2.2-1.6-3.2-2.3c-1.1-0.7-2.2-1.3-3.2-1.9
			c-0.3-0.1-0.5-0.3-0.8-0.4c-0.3-0.1-0.5-0.3-0.8-0.4c-0.5-0.3-1-0.5-1.6-0.7c-1-0.5-2-0.9-3-1.2c-0.5-0.2-1-0.3-1.4-0.5
			c-0.5-0.1-0.9-0.3-1.4-0.4C7.9,30.2,6.3,30,5,29.9c-1.3-0.1-2.4-0.1-3.1-0.1c-0.4,0-0.6,0-0.8,0c-0.2,0-0.3,0-0.3,0
			c8.4,0.6,11.1,8.2,13,17.7C13.9,47.6,14,47.6,14.1,47.5z"/>
		
			<linearGradient id="XMLID_21_" gradientUnits="userSpaceOnUse" x1="-408.153" y1="-336.2531" x2="-333.338" y2="-385.7631" gradientTransform="matrix(-0.1148 -0.9933 0.9933 -0.1148 357.7463 -353.2921)">
			<stop  offset="0" style="stop-color:#2B388F"/>
			<stop  offset="0.2138" style="stop-color:#2960AB"/>
			<stop  offset="0.428" style="stop-color:#287FC2"/>
			<stop  offset="0.6351" style="stop-color:#2796D3"/>
			<stop  offset="0.83" style="stop-color:#26A4DD"/>
			<stop  offset="1" style="stop-color:#26A9E0"/>
		</linearGradient>
		<path id="XMLID_35_" class="st20" d="M1.9,29.8c0.7-0.1,1.8-0.2,3.1-0.2c1.3,0,3,0,4.9,0.3c0.5,0.1,1,0.1,1.4,0.2
			c0.5,0.1,1,0.2,1.5,0.3c1,0.3,2.1,0.6,3.2,1c0.5,0.2,1.1,0.4,1.7,0.6c0.3,0.1,0.6,0.2,0.8,0.3c0.3,0.1,0.6,0.2,0.9,0.4
			c1.2,0.5,2.3,1,3.5,1.7c1.2,0.6,2.4,1.3,3.6,2.1c1.2,0.8,2.4,1.6,3.6,2.4c2.3,1.7,4.6,3.7,6.8,5.8c0-0.3,0-0.5,0-0.8
			c0-0.5,0.1-1.1,0.1-1.6c0-0.3,0.1-0.6,0.1-0.9c0-0.3,0.1-0.6,0.1-0.9c0.1-0.6,0.2-1.2,0.3-1.8c0.1-0.3,0.1-0.6,0.2-0.9
			c0.1-0.3,0.1-0.6,0.2-0.9c0.1-0.3,0.1-0.6,0.2-0.9c0-0.1,0.1-0.3,0.1-0.4c0-0.1,0.1-0.3,0.1-0.4c0-0.1,0.1-0.3,0.1-0.4
			c0-0.1,0.1-0.3,0.1-0.4c0-0.1,0.1-0.3,0.1-0.4c0-0.1,0.1-0.2,0.1-0.4c0.1-0.2,0.2-0.5,0.3-0.7c0.1-0.2,0.2-0.4,0.3-0.6
			c0-0.1,0.1-0.2,0.1-0.3c0.1-0.1,0.1-0.2,0.1-0.3c0,0,0,0,0-0.1c-18.1-8.3-38.9-2-38.9-2s0.1,0,0.3,0C1.2,29.8,1.5,29.8,1.9,29.8z"
			/>
		
			<linearGradient id="XMLID_23_" gradientUnits="userSpaceOnUse" x1="-402.114" y1="-327.1342" x2="-327.3046" y2="-376.6405" gradientTransform="matrix(-0.1148 -0.9933 0.9933 -0.1148 357.7463 -353.2921)">
			<stop  offset="0" style="stop-color:#2B388F"/>
			<stop  offset="0.2138" style="stop-color:#2960AB"/>
			<stop  offset="0.428" style="stop-color:#287FC2"/>
			<stop  offset="0.6351" style="stop-color:#2796D3"/>
			<stop  offset="0.83" style="stop-color:#26A4DD"/>
			<stop  offset="1" style="stop-color:#26A9E0"/>
		</linearGradient>
		<path id="XMLID_32_" class="st21" d="M39.9,32.1c0,0.1-0.1,0.2-0.1,0.3c0,0.1-0.1,0.2-0.1,0.3c-0.1,0.2-0.1,0.4-0.2,0.7
			c-0.1,0.2-0.1,0.5-0.2,0.7c0,0.1-0.1,0.2-0.1,0.4c0,0.1-0.1,0.3-0.1,0.4c0,0.1-0.1,0.3-0.1,0.4c0,0.1,0,0.3-0.1,0.4
			c0,0.1,0,0.3-0.1,0.4c0,0.1,0,0.3-0.1,0.4c0,0.3-0.1,0.6-0.1,0.8c0,0.3-0.1,0.6-0.1,0.9c0,0.3,0,0.6-0.1,0.9c0,0.6,0,1.2-0.1,1.7
			c0,0.3,0,0.6,0,0.9c0,0.3,0,0.6,0,0.8c0,0.5,0,1.1,0.1,1.6c0,0.5,0.1,1,0.1,1.4c0,0.4,0.1,0.8,0.1,1.2c0,0.1,0,0.2,0,0.3
			c1.5,1.6,2.9,3.3,4.3,5c0.4,0.5,0.7,1,1.1,1.5c0.9-2.2,2.1-5,3.5-7.7c0.8-1.5,1.6-2.9,2.4-4.2c0.4-0.6,0.7-1.1,1.1-1.6
			C47.8,36.4,43.9,33.9,39.9,32.1C40,32,39.9,32,39.9,32.1z"/>
		
			<linearGradient id="XMLID_24_" gradientUnits="userSpaceOnUse" x1="-417.6477" y1="-350.6064" x2="-342.8336" y2="-400.1157" gradientTransform="matrix(-0.1148 -0.9933 0.9933 -0.1148 357.7463 -353.2921)">
			<stop  offset="0" style="stop-color:#2B388F"/>
			<stop  offset="0.2138" style="stop-color:#2960AB"/>
			<stop  offset="0.428" style="stop-color:#287FC2"/>
			<stop  offset="0.6351" style="stop-color:#2796D3"/>
			<stop  offset="0.83" style="stop-color:#26A4DD"/>
			<stop  offset="1" style="stop-color:#26A9E0"/>
		</linearGradient>
		<path id="XMLID_29_" class="st22" d="M52.5,84.5c-0.8-2.9-1.8-6-3-9.3c-0.7,0-1.7,0-2.7,0c-0.7,0-1.4,0-2.2,0
			c-0.8,0-1.6,0-2.5,0.1c-0.4,0-0.9,0-1.3,0.1c-0.2,0-0.4,0-0.7,0c-0.2,0-0.5,0-0.7,0c-0.9,0.1-1.8,0.1-2.7,0.2
			c-0.5,0-0.9,0.1-1.4,0.1c-0.5,0.1-0.9,0.1-1.4,0.2c-0.9,0.1-1.8,0.2-2.6,0.4c-0.4,0.1-0.9,0.1-1.3,0.2c-0.4,0.1-0.8,0.1-1.2,0.2
			c-0.8,0.1-1.5,0.3-2.2,0.4c-0.3,0.1-0.7,0.2-1,0.2c-0.3,0.1-0.6,0.2-0.9,0.2c-0.1,0-0.3,0.1-0.4,0.1c-0.1,0-0.2,0.1-0.4,0.1
			c-0.2,0.1-0.5,0.1-0.6,0.2c-0.1,0-0.2,0.1-0.3,0.1c3.1,4.2,7.4,7.5,13.8,8.9c9.8,1.6,15.3,4.6,17.9,6.5
			C54.2,91.1,53.5,88,52.5,84.5z"/>
		
			<linearGradient id="XMLID_25_" gradientUnits="userSpaceOnUse" x1="-404.5691" y1="-330.8437" x2="-329.7618" y2="-380.3485" gradientTransform="matrix(-0.1148 -0.9933 0.9933 -0.1148 357.7463 -353.2921)">
			<stop  offset="0" style="stop-color:#2B388F"/>
			<stop  offset="0.2138" style="stop-color:#2960AB"/>
			<stop  offset="0.428" style="stop-color:#287FC2"/>
			<stop  offset="0.6351" style="stop-color:#2796D3"/>
			<stop  offset="0.83" style="stop-color:#26A4DD"/>
			<stop  offset="1" style="stop-color:#26A9E0"/>
		</linearGradient>
		<path id="XMLID_26_" class="st23" d="M62.5,58.1c-0.1,0.1-0.2,0.2-0.3,0.2c-0.1,0.1-0.2,0.2-0.3,0.3c-0.2,0.2-0.4,0.3-0.5,0.5
			c-0.4,0.4-0.7,0.8-1.1,1.2c-0.2,0.2-0.4,0.4-0.5,0.7c-0.2,0.2-0.4,0.5-0.5,0.7c-0.1,0.1-0.2,0.2-0.3,0.4c-0.1,0.1-0.2,0.2-0.3,0.4
			c-0.2,0.2-0.3,0.5-0.5,0.8c-0.2,0.3-0.3,0.5-0.5,0.8c-0.2,0.3-0.3,0.5-0.5,0.8c-0.3,0.5-0.6,1-0.8,1.5c-0.3,0.5-0.5,1-0.7,1.5
			c-0.2,0.5-0.4,0.9-0.6,1.3c-0.2,0.6-0.4,1-0.6,1.5c1.9,3.8,3.4,7.4,4.7,10.7c0.4-1.7,1-3.4,1.6-4.9c2.3-5.2,5.4-10.4,2-18.7
			C62.8,57.8,62.7,57.9,62.5,58.1z"/>
		
			<linearGradient id="XMLID_27_" gradientUnits="userSpaceOnUse" x1="-402.7162" y1="-328.0441" x2="-327.9077" y2="-377.5497" gradientTransform="matrix(-0.1148 -0.9933 0.9933 -0.1148 357.7463 -353.2921)">
			<stop  offset="0" style="stop-color:#2B388F"/>
			<stop  offset="0.2138" style="stop-color:#2960AB"/>
			<stop  offset="0.428" style="stop-color:#287FC2"/>
			<stop  offset="0.6351" style="stop-color:#2796D3"/>
			<stop  offset="0.83" style="stop-color:#26A4DD"/>
			<stop  offset="1" style="stop-color:#26A9E0"/>
		</linearGradient>
		<path id="XMLID_22_" class="st24" d="M50.9,41.9c-0.7,1.4-1.3,2.8-1.9,4.3c-1.2,3-2.1,6.1-2.7,8.4c-0.1,0.4-0.2,0.7-0.3,1.1
			c0.9,1.2,1.7,2.5,2.5,3.8c1.7,2.6,3.2,5.3,4.5,7.9c0,0,0,0,0,0c0.2-0.3,0.4-0.6,0.6-0.9c0.3-0.5,0.6-0.9,1-1.4
			c0.3-0.5,0.7-1,1.1-1.5c0.2-0.2,0.4-0.5,0.6-0.7c0.2-0.2,0.4-0.5,0.6-0.7c0.2-0.2,0.4-0.5,0.6-0.7c0.1-0.1,0.2-0.2,0.3-0.3
			c0.1-0.1,0.2-0.2,0.3-0.3c0.2-0.2,0.4-0.4,0.7-0.6c0.2-0.2,0.5-0.4,0.7-0.6c0.4-0.4,0.9-0.7,1.3-1.1c0.2-0.2,0.4-0.3,0.6-0.5
			c0.1-0.1,0.2-0.1,0.3-0.2c0.1-0.1,0.2-0.1,0.3-0.2c0.2-0.1,0.4-0.3,0.6-0.4c-0.9-2.1-2.2-4.4-4-6.9c-2-4-4.4-7.3-7.1-10
			C51.5,40.9,51.2,41.4,50.9,41.9z"/>
	</g>
</g>
</svg>
